<?xml version="1.0" encoding="utf-8"?>
<!-- Generator: Adobe Illustrator 26.3.1, SVG Export Plug-In . SVG Version: 6.00 Build 0)  -->
<svg version="1.1" id="c" xmlns="http://www.w3.org/2000/svg" xmlns:xlink="http://www.w3.org/1999/xlink" x="0px" y="0px" viewBox="0 0 151.5 148.3" style="enable-background:new 0 0 151.5 148.3;" xml:space="preserve">
  <style type="text/css">
	.st0{fill:#669AAD;}
	.st1{fill:#CCDDE4;}
	.st2{fill:#FFFFFF;}
	.st3{enable-background:new    ;}
	.st4{fill:#005776;}
	.st5{fill:#FEDAD0;}
	.st6{fill:#FA4616;}
	.st7{fill:#DAECD9;}
	.st8{fill:#47A23F;}
</style>
  <g>
    <g>
      <rect x="41.1" y="37.1" class="st0" width="3" height="28.8" />
    </g>
    <g>
      <polygon class="st0" points="36.6,64.2 42.6,74.6 48.6,64.2 		" />
    </g>
  </g>
  <g>
    <path class="st1" d="M83,37.2H19.3c-9.9,0-17.8-8-17.8-17.8S9.4,1.5,19.3,1.5H83" />
    <path class="st0" d="M83,38.6H19.3C8.7,38.6,0,30,0,19.3C0,8.7,8.7,0,19.3,0H83v3H19.3C10.3,3,3,10.3,3,19.3
		c0,9,7.3,16.3,16.3,16.3H83V38.6z" />
  </g>
  <g>
    <path class="st2" d="M80.5,37.2h51.7c9.9,0,17.8-8,17.8-17.8s-8-17.8-17.8-17.8H80.5C80.5,1.5,80.5,37.2,80.5,37.2z" />
    <path class="st0" d="M132.2,38.6H80.5c-0.8,0-1.5-0.7-1.5-1.5V1.5C79,0.7,79.7,0,80.5,0h51.7c10.7,0,19.3,8.7,19.3,19.3
		C151.5,30,142.8,38.6,132.2,38.6z M82,35.6h50.2c9,0,16.3-7.3,16.3-16.3c0-9-7.3-16.3-16.3-16.3H82V35.6z" />
  </g>
  <g class="st3">
    <path class="st4" d="M19.2,14.8h4.2c1.2,0,2.1,0.3,2.7,0.9c0.5,0.5,0.8,1.2,0.8,2.1v0c0,1.5-0.8,2.4-2,2.8l2.2,3.2h-2.3l-2-2.9
		h-1.6v2.9h-2V14.8z M23.2,19.2c1,0,1.5-0.5,1.5-1.3v0c0-0.9-0.6-1.3-1.6-1.3h-2v2.6H23.2z" />
  </g>
  <g class="st3">
    <path class="st4" d="M27.9,20.5L27.9,20.5c0-2,1.4-3.7,3.4-3.7c2.3,0,3.4,1.8,3.4,3.8c0,0.2,0,0.3,0,0.5h-4.8
		c0.2,0.9,0.8,1.4,1.7,1.4c0.7,0,1.1-0.2,1.7-0.7l1.1,1c-0.6,0.8-1.6,1.3-2.8,1.3C29.5,24.1,27.9,22.6,27.9,20.5z M32.8,19.9
		c-0.1-0.9-0.6-1.5-1.5-1.5c-0.8,0-1.4,0.6-1.5,1.5H32.8z" />
    <path class="st4" d="M35.2,26v-1.5c0.2,0,0.3,0,0.4,0c0.4,0,0.7-0.2,0.7-0.8V17h2v6.9c0,1.5-0.8,2.2-2.2,2.2
		C35.7,26,35.5,26,35.2,26z M36.3,14.4h2.1v1.8h-2.1V14.4z" />
    <path class="st4" d="M39.8,20.5L39.8,20.5c0-2,1.4-3.7,3.4-3.7c2.3,0,3.4,1.8,3.4,3.8c0,0.2,0,0.3,0,0.5h-4.8
		c0.2,0.9,0.8,1.4,1.7,1.4c0.7,0,1.1-0.2,1.7-0.7l1.1,1c-0.6,0.8-1.6,1.3-2.8,1.3C41.3,24.1,39.8,22.6,39.8,20.5z M44.7,19.9
		c-0.1-0.9-0.6-1.5-1.5-1.5c-0.8,0-1.4,0.6-1.5,1.5H44.7z" />
    <path class="st4" d="M47.8,20.5L47.8,20.5c0-2,1.5-3.7,3.7-3.7c1.3,0,2.1,0.4,2.8,1.2L53,19.3c-0.4-0.5-0.9-0.8-1.6-0.8
		c-1,0-1.7,0.9-1.7,1.9v0c0,1.1,0.7,1.9,1.8,1.9c0.7,0,1.1-0.3,1.6-0.7l1.2,1.2c-0.7,0.7-1.5,1.3-2.8,1.3
		C49.3,24.1,47.8,22.5,47.8,20.5z" />
    <path class="st4" d="M55.9,21.9v-3.3H55V17h0.8v-1.8h2V17h1.6v1.7h-1.6v3c0,0.5,0.2,0.7,0.6,0.7c0.4,0,0.7-0.1,1-0.2v1.6
		C59,23.9,58.5,24,57.9,24C56.7,24,55.9,23.6,55.9,21.9z" />
    <path class="st4" d="M60.4,23l0.8-1.3c0.8,0.5,1.5,0.8,2.2,0.8c0.6,0,0.8-0.2,0.8-0.5v0c0-0.4-0.7-0.6-1.4-0.8
		c-1-0.3-2.1-0.7-2.1-2.1v0c0-1.4,1.1-2.2,2.5-2.2c0.9,0,1.8,0.3,2.6,0.8L65.1,19c-0.7-0.4-1.4-0.6-1.9-0.6c-0.5,0-0.7,0.2-0.7,0.5
		v0c0,0.4,0.7,0.6,1.4,0.8c1,0.3,2.1,0.8,2.1,2.1v0c0,1.5-1.2,2.2-2.7,2.2C62.4,24,61.3,23.7,60.4,23z" />
  </g>
  <g class="st3">
    <path d="M93.8,17.1h1.6v1.1c0.5-0.7,1.2-1.3,2.3-1.3c1.6,0,3.2,1.3,3.2,3.6v0c0,2.3-1.6,3.6-3.2,3.6c-1.1,0-1.9-0.6-2.3-1.2V26
		h-1.6V17.1z M99.3,20.5L99.3,20.5c0-1.4-0.9-2.2-2-2.2c-1.1,0-2,0.9-2,2.2v0c0,1.3,0.9,2.2,2,2.2C98.4,22.7,99.3,21.9,99.3,20.5z" />
    <path d="M102.3,20.2c0-2.5,1.2-4.3,3.6-5.6l0.7,1.1c-1.8,1.2-2.7,2.6-2.7,4.5c0,1.9,0.9,3.3,2.7,4.5l-0.7,1.1
		C103.6,24.5,102.3,22.6,102.3,20.2z" />
    <path d="M108.4,14.8h4.1c1,0,1.9,0.3,2.4,0.8c0.4,0.4,0.6,0.9,0.6,1.5v0c0,1.1-0.6,1.7-1.3,2c1.1,0.4,1.8,1,1.8,2.2v0
		c0,1.6-1.3,2.5-3.4,2.5h-4.2V14.8z M113.9,17.4c0-0.7-0.6-1.2-1.6-1.2H110v2.4h2.2C113.2,18.7,113.9,18.3,113.9,17.4L113.9,17.4z
		 M112.5,20H110v2.5h2.7c1.1,0,1.8-0.4,1.8-1.2v0C114.4,20.5,113.8,20,112.5,20z" />
    <path d="M117.2,21.9L117.2,21.9c0-1.5,1.2-2.2,2.8-2.2c0.8,0,1.3,0.1,1.8,0.3v-0.2c0-1-0.6-1.5-1.7-1.5c-0.8,0-1.3,0.2-2,0.4
		l-0.4-1.2c0.8-0.3,1.5-0.6,2.6-0.6c1,0,1.8,0.3,2.3,0.8c0.5,0.5,0.7,1.2,0.7,2.1v4.1h-1.5v-0.9c-0.5,0.6-1.2,1-2.2,1
		C118.3,24.1,117.2,23.3,117.2,21.9z M121.9,21.5V21c-0.4-0.2-0.9-0.3-1.6-0.3c-1,0-1.6,0.4-1.6,1.1v0c0,0.7,0.6,1,1.3,1
		C121.1,22.9,121.9,22.3,121.9,21.5z" />
    <path d="M124.9,20.5L124.9,20.5c0-2.3,1.5-3.6,3.2-3.6c1.1,0,1.8,0.6,2.3,1.2v-3.7h1.6v9.5h-1.6v-1.1c-0.5,0.7-1.2,1.3-2.3,1.3
		C126.5,24.1,124.9,22.8,124.9,20.5z M130.5,20.5L130.5,20.5c0-1.4-0.9-2.2-2-2.2c-1.1,0-2,0.8-2,2.2v0c0,1.3,0.9,2.2,2,2.2
		C129.5,22.7,130.5,21.8,130.5,20.5z" />
    <path d="M133.6,24.7c1.8-1.2,2.7-2.6,2.7-4.5c0-1.9-0.9-3.3-2.7-4.5l0.7-1.1c2.4,1.3,3.6,3.1,3.6,5.6s-1.2,4.3-3.6,5.6L133.6,24.7z
		" />
  </g>
  <g>
    <path class="st5" d="M83,111.2H19.3c-9.9,0-17.8-7.9-17.8-17.8s7.9-17.8,17.8-17.8H83" />
    <path class="st0" d="M83,112.7H19.3C8.7,112.7,0,104,0,93.3S8.7,74,19.3,74H83v3H19.3C10.3,77,3,84.3,3,93.3s7.3,16.3,16.3,16.3H83
		V112.7z" />
  </g>
  <g>
    <path class="st2" d="M80.5,111.2h51.7c9.9,0,17.8-7.9,17.8-17.8s-7.9-17.8-17.8-17.8H80.5L80.5,111.2L80.5,111.2z" />
    <path class="st0" d="M80.5,112.7c-0.8,0-1.5-0.7-1.5-1.5V75.5c0-0.8,0.7-1.5,1.5-1.5h51.7c10.7,0,19.3,8.7,19.3,19.3
		s-8.7,19.3-19.3,19.3H80.7C80.6,112.7,80.5,112.7,80.5,112.7z M82,109.7h50.2c9,0,16.3-7.3,16.3-16.3S141.2,77,132.2,77H82V109.7z" />
  </g>
  <g class="st3">
    <path class="st6" d="M19.2,88.8h4.2c1.2,0,2.1,0.3,2.7,0.9c0.5,0.5,0.8,1.2,0.8,2.1v0c0,1.5-0.8,2.4-2,2.8l2.2,3.2h-2.3l-2-2.9
		h-1.6v2.9h-2V88.8z M23.2,93.2c1,0,1.5-0.5,1.5-1.3v0c0-0.9-0.6-1.3-1.6-1.3h-2v2.6H23.2z" />
  </g>
  <g class="st3">
    <path class="st6" d="M27.9,94.5L27.9,94.5c0-2,1.4-3.7,3.4-3.7c2.3,0,3.4,1.8,3.4,3.8c0,0.2,0,0.3,0,0.5h-4.8
		c0.2,0.9,0.8,1.4,1.7,1.4c0.7,0,1.1-0.2,1.7-0.7l1.1,1c-0.6,0.8-1.6,1.3-2.8,1.3C29.5,98.1,27.9,96.6,27.9,94.5z M32.8,93.9
		c-0.1-0.9-0.6-1.5-1.5-1.5c-0.8,0-1.4,0.6-1.5,1.5H32.8z" />
    <path class="st6" d="M35.2,100v-1.5c0.2,0,0.3,0,0.4,0c0.4,0,0.7-0.2,0.7-0.8V91h2v6.9c0,1.5-0.8,2.2-2.2,2.2
		C35.7,100,35.5,100,35.2,100z M36.3,88.4h2.1v1.8h-2.1V88.4z" />
    <path class="st6" d="M39.8,94.5L39.8,94.5c0-2,1.4-3.7,3.4-3.7c2.3,0,3.4,1.8,3.4,3.8c0,0.2,0,0.3,0,0.5h-4.8
		c0.2,0.9,0.8,1.4,1.7,1.4c0.7,0,1.1-0.2,1.7-0.7l1.1,1c-0.6,0.8-1.6,1.3-2.8,1.3C41.3,98.1,39.8,96.6,39.8,94.5z M44.7,93.9
		c-0.1-0.9-0.6-1.5-1.5-1.5c-0.8,0-1.4,0.6-1.5,1.5H44.7z" />
    <path class="st6" d="M47.8,94.5L47.8,94.5c0-2,1.5-3.7,3.7-3.7c1.3,0,2.1,0.4,2.8,1.2L53,93.3c-0.4-0.5-0.9-0.8-1.6-0.8
		c-1,0-1.7,0.9-1.7,1.9v0c0,1.1,0.7,1.9,1.8,1.9c0.7,0,1.1-0.3,1.6-0.7l1.2,1.2c-0.7,0.7-1.5,1.3-2.8,1.3
		C49.3,98.1,47.8,96.5,47.8,94.5z" />
    <path class="st6" d="M55.9,96v-3.3H55V91h0.8v-1.8h2V91h1.6v1.7h-1.6v3c0,0.5,0.2,0.7,0.6,0.7c0.4,0,0.7-0.1,1-0.2v1.6
		C59,97.9,58.5,98,57.9,98C56.7,98,55.9,97.6,55.9,96z" />
    <path class="st6" d="M60.4,97l0.8-1.3c0.8,0.5,1.5,0.8,2.2,0.8c0.6,0,0.8-0.2,0.8-0.5v0c0-0.4-0.7-0.6-1.4-0.8
		c-1-0.3-2.1-0.7-2.1-2.1v0c0-1.4,1.1-2.2,2.5-2.2c0.9,0,1.8,0.3,2.6,0.8L65.1,93c-0.7-0.4-1.4-0.6-1.9-0.6c-0.5,0-0.7,0.2-0.7,0.5
		v0c0,0.4,0.7,0.6,1.4,0.8c1,0.3,2.1,0.8,2.1,2.1v0c0,1.5-1.2,2.2-2.7,2.2C62.4,98.1,61.3,97.7,60.4,97z" />
  </g>
  <g class="st3">
    <path d="M93.8,91.1h1.6v1.1c0.5-0.7,1.2-1.3,2.3-1.3c1.6,0,3.2,1.3,3.2,3.6v0c0,2.3-1.6,3.6-3.2,3.6c-1.1,0-1.9-0.6-2.3-1.2v3.1
		h-1.6V91.1z M99.3,94.5L99.3,94.5c0-1.4-0.9-2.2-2-2.2c-1.1,0-2,0.9-2,2.2v0c0,1.3,0.9,2.2,2,2.2C98.4,96.7,99.3,95.9,99.3,94.5z" />
    <path d="M102.3,94.2c0-2.5,1.2-4.3,3.6-5.6l0.7,1.1c-1.8,1.2-2.7,2.6-2.7,4.5c0,1.9,0.9,3.3,2.7,4.5l-0.7,1.1
		C103.6,98.5,102.3,96.7,102.3,94.2z" />
    <path d="M108.4,88.8h4.1c1,0,1.9,0.3,2.4,0.8c0.4,0.4,0.6,0.9,0.6,1.5v0c0,1.1-0.6,1.7-1.3,2c1.1,0.4,1.8,1,1.8,2.2v0
		c0,1.6-1.3,2.5-3.4,2.5h-4.2V88.8z M113.9,91.4c0-0.7-0.6-1.2-1.6-1.2H110v2.4h2.2C113.2,92.7,113.9,92.3,113.9,91.4L113.9,91.4z
		 M112.5,94H110v2.5h2.7c1.1,0,1.8-0.4,1.8-1.2v0C114.4,94.5,113.8,94,112.5,94z" />
    <path d="M117.2,96L117.2,96c0-1.5,1.2-2.2,2.8-2.2c0.8,0,1.3,0.1,1.8,0.3v-0.2c0-1-0.6-1.5-1.7-1.5c-0.8,0-1.3,0.2-2,0.4l-0.4-1.2
		c0.8-0.3,1.5-0.6,2.6-0.6c1,0,1.8,0.3,2.3,0.8c0.5,0.5,0.7,1.2,0.7,2.1v4.1h-1.5v-0.9c-0.5,0.6-1.2,1-2.2,1
		C118.3,98.1,117.2,97.3,117.2,96z M121.9,95.5V95c-0.4-0.2-0.9-0.3-1.6-0.3c-1,0-1.6,0.4-1.6,1.1v0c0,0.7,0.6,1,1.3,1
		C121.1,96.9,121.9,96.3,121.9,95.5z" />
    <path d="M124.9,94.5L124.9,94.5c0-2.3,1.5-3.6,3.2-3.6c1.1,0,1.8,0.6,2.3,1.2v-3.7h1.6v9.5h-1.6v-1.1c-0.5,0.7-1.2,1.3-2.3,1.3
		C126.5,98.1,124.9,96.8,124.9,94.5z M130.5,94.5L130.5,94.5c0-1.4-0.9-2.2-2-2.2c-1.1,0-2,0.8-2,2.2v0c0,1.3,0.9,2.2,2,2.2
		C129.5,96.7,130.5,95.8,130.5,94.5z" />
    <path d="M133.6,98.7c1.8-1.2,2.7-2.6,2.7-4.5c0-1.9-0.9-3.3-2.7-4.5l0.7-1.1c2.4,1.3,3.6,3.1,3.6,5.6s-1.2,4.3-3.6,5.6L133.6,98.7z
		" />
  </g>
  <g>
    <path class="st7" d="M83,146.8H19.3c-9.9,0-17.8-7.9-17.8-17.8s7.9-17.8,17.8-17.8H83" />
    <path class="st0" d="M83,148.3H19.3C8.7,148.3,0,139.6,0,129c0-10.7,8.7-19.3,19.3-19.3H83v3H19.3C10.3,112.7,3,120,3,129
		c0,9,7.3,16.3,16.3,16.3H83V148.3z" />
  </g>
  <g>
    <path class="st2" d="M80.5,146.8h51.7c9.9,0,17.8-7.9,17.8-17.8s-7.9-17.8-17.8-17.8H80.5L80.5,146.8L80.5,146.8z" />
    <path class="st0" d="M80.5,148.3c-0.8,0-1.5-0.7-1.5-1.5v-35.6c0-0.8,0.7-1.5,1.5-1.5h51.7c10.7,0,19.3,8.7,19.3,19.3
		c0,10.7-8.7,19.3-19.3,19.3H80.7C80.6,148.3,80.5,148.3,80.5,148.3z M82,145.3h50.2c9,0,16.3-7.3,16.3-16.3c0-9-7.3-16.3-16.3-16.3
		H82V145.3z" />
  </g>
  <g class="st3">
    <path class="st8" d="M19.2,124.5h4.2c1.2,0,2.1,0.3,2.7,0.9c0.5,0.5,0.8,1.2,0.8,2.1v0c0,1.5-0.8,2.4-2,2.8l2.2,3.2h-2.3l-2-2.9
		h-1.6v2.9h-2V124.5z M23.2,128.9c1,0,1.5-0.5,1.5-1.3v0c0-0.9-0.6-1.3-1.6-1.3h-2v2.6H23.2z" />
  </g>
  <g class="st3">
    <path class="st8" d="M27.9,130.1L27.9,130.1c0-2,1.4-3.7,3.4-3.7c2.3,0,3.4,1.8,3.4,3.8c0,0.2,0,0.3,0,0.5h-4.8
		c0.2,0.9,0.8,1.4,1.7,1.4c0.7,0,1.1-0.2,1.7-0.7l1.1,1c-0.6,0.8-1.6,1.3-2.8,1.3C29.5,133.7,27.9,132.3,27.9,130.1z M32.8,129.5
		c-0.1-0.9-0.6-1.5-1.5-1.5c-0.8,0-1.4,0.6-1.5,1.5H32.8z" />
    <path class="st8" d="M35.2,135.6v-1.5c0.2,0,0.3,0,0.4,0c0.4,0,0.7-0.2,0.7-0.8v-6.7h2v6.9c0,1.5-0.8,2.2-2.2,2.2
		C35.7,135.7,35.5,135.7,35.2,135.6z M36.3,124.1h2.1v1.8h-2.1V124.1z" />
    <path class="st8" d="M39.8,130.1L39.8,130.1c0-2,1.4-3.7,3.4-3.7c2.3,0,3.4,1.8,3.4,3.8c0,0.2,0,0.3,0,0.5h-4.8
		c0.2,0.9,0.8,1.4,1.7,1.4c0.7,0,1.1-0.2,1.7-0.7l1.1,1c-0.6,0.8-1.6,1.3-2.8,1.3C41.3,133.7,39.8,132.3,39.8,130.1z M44.7,129.5
		c-0.1-0.9-0.6-1.5-1.5-1.5c-0.8,0-1.4,0.6-1.5,1.5H44.7z" />
    <path class="st8" d="M47.8,130.1L47.8,130.1c0-2,1.5-3.7,3.7-3.7c1.3,0,2.1,0.4,2.8,1.2l-1.2,1.3c-0.4-0.5-0.9-0.8-1.6-0.8
		c-1,0-1.7,0.9-1.7,1.9v0c0,1.1,0.7,1.9,1.8,1.9c0.7,0,1.1-0.3,1.6-0.7l1.2,1.2c-0.7,0.7-1.5,1.3-2.8,1.3
		C49.3,133.7,47.8,132.1,47.8,130.1z" />
    <path class="st8" d="M55.9,131.6v-3.3H55v-1.7h0.8v-1.8h2v1.8h1.6v1.7h-1.6v3c0,0.5,0.2,0.7,0.6,0.7c0.4,0,0.7-0.1,1-0.2v1.6
		c-0.4,0.2-0.9,0.4-1.6,0.4C56.7,133.7,55.9,133.2,55.9,131.6z" />
    <path class="st8" d="M60.4,132.6l0.8-1.3c0.8,0.5,1.5,0.8,2.2,0.8c0.6,0,0.8-0.2,0.8-0.5v0c0-0.4-0.7-0.6-1.4-0.8
		c-1-0.3-2.1-0.7-2.1-2.1v0c0-1.4,1.1-2.2,2.5-2.2c0.9,0,1.8,0.3,2.6,0.8l-0.8,1.4c-0.7-0.4-1.4-0.6-1.9-0.6c-0.5,0-0.7,0.2-0.7,0.5
		v0c0,0.4,0.7,0.6,1.4,0.8c1,0.3,2.1,0.8,2.1,2.1v0c0,1.5-1.2,2.2-2.7,2.2C62.4,133.7,61.3,133.4,60.4,132.6z" />
  </g>
  <g class="st3">
    <path d="M88.8,126.7h1.6v1.1c0.5-0.7,1.2-1.3,2.3-1.3c1.6,0,3.2,1.3,3.2,3.6v0c0,2.3-1.6,3.6-3.2,3.6c-1.1,0-1.9-0.6-2.3-1.2v3.1
		h-1.6V126.7z M94.3,130.2L94.3,130.2c0-1.4-0.9-2.2-2-2.2c-1.1,0-2,0.9-2,2.2v0c0,1.3,0.9,2.2,2,2.2
		C93.5,132.3,94.3,131.5,94.3,130.2z" />
  </g>
  <g class="st3">
    <path d="M97.4,129.8c0-2.5,1.2-4.3,3.6-5.6l0.7,1.1c-1.8,1.2-2.7,2.6-2.7,4.5c0,1.9,0.9,3.3,2.7,4.5l-0.7,1.1
		C98.6,134.1,97.4,132.3,97.4,129.8z" />
  </g>
  <g class="st3">
    <path d="M102.7,129L102.7,129c0-2.6,2-4.7,4.7-4.7c1.6,0,2.6,0.4,3.5,1.2l-1,1.2c-0.7-0.6-1.4-1-2.5-1c-1.7,0-3,1.5-3,3.2v0
		c0,1.9,1.2,3.2,3.1,3.2c0.9,0,1.6-0.3,2.2-0.7v-1.7h-2.3v-1.4h3.9v3.8c-0.9,0.8-2.2,1.4-3.8,1.4C104.6,133.7,102.7,131.7,102.7,129
		z" />
    <path d="M112.7,130.2L112.7,130.2c0-2,1.6-3.6,3.7-3.6c2.1,0,3.7,1.6,3.7,3.6v0c0,2-1.6,3.6-3.7,3.6
		C114.3,133.7,112.7,132.1,112.7,130.2z M118.5,130.2L118.5,130.2c0-1.2-0.9-2.2-2.1-2.2c-1.3,0-2.1,1-2.1,2.2v0
		c0,1.2,0.9,2.2,2.1,2.2C117.7,132.3,118.5,131.4,118.5,130.2z" />
    <path d="M121.3,130.2L121.3,130.2c0-2,1.6-3.6,3.7-3.6c2.1,0,3.7,1.6,3.7,3.6v0c0,2-1.6,3.6-3.7,3.6
		C122.8,133.7,121.3,132.1,121.3,130.2z M127,130.2L127,130.2c0-1.2-0.9-2.2-2.1-2.2c-1.3,0-2.1,1-2.1,2.2v0c0,1.2,0.9,2.2,2.1,2.2
		C126.2,132.3,127,131.4,127,130.2z" />
    <path d="M129.8,130.2L129.8,130.2c0-2.3,1.5-3.6,3.2-3.6c1.1,0,1.8,0.6,2.3,1.2v-3.7h1.6v9.5h-1.6v-1.1c-0.5,0.7-1.2,1.3-2.3,1.3
		C131.4,133.7,129.8,132.4,129.8,130.2z M135.4,130.2L135.4,130.2c0-1.4-0.9-2.2-2-2.2c-1.1,0-2,0.8-2,2.2v0c0,1.3,0.9,2.2,2,2.2
		C134.5,132.3,135.4,131.5,135.4,130.2z" />
    <path d="M138.6,134.4c1.8-1.2,2.7-2.6,2.7-4.5c0-1.9-0.9-3.3-2.7-4.5l0.7-1.1c2.4,1.3,3.6,3.1,3.6,5.6s-1.2,4.3-3.6,5.6
		L138.6,134.4z" />
  </g>
  <g class="st3">
    <path d="M61.3,58.4l1-1.1c0.9,0.8,1.8,1.2,2.9,1.2c1,0,1.6-0.5,1.6-1.1v0c0-0.7-0.4-1-2.1-1.4c-1.9-0.5-3-1-3-2.7v0
		c0-1.6,1.3-2.6,3.1-2.6c1.3,0,2.4,0.4,3.3,1.1l-0.9,1.2c-0.8-0.6-1.6-0.9-2.5-0.9c-0.9,0-1.5,0.5-1.5,1.1v0c0,0.7,0.4,1,2.2,1.4
		c1.9,0.5,2.9,1.2,2.9,2.7v0c0,1.7-1.3,2.7-3.3,2.7C63.8,59.9,62.4,59.4,61.3,58.4z" />
  </g>
  <g class="st3">
    <path d="M69.7,56.4L69.7,56.4c0-2,1.5-3.6,3.6-3.6c1.3,0,2.1,0.5,2.7,1.2l-1,1.1c-0.5-0.5-1-0.9-1.8-0.9c-1.1,0-2,1-2,2.2v0
		c0,1.2,0.8,2.2,2.1,2.2c0.7,0,1.3-0.3,1.8-0.8l0.9,0.9c-0.7,0.8-1.5,1.3-2.8,1.3C71.2,59.9,69.7,58.3,69.7,56.4z" />
  </g>
  <g class="st3">
    <path d="M77,56.4L77,56.4c0-2,1.6-3.6,3.7-3.6s3.7,1.6,3.7,3.6v0c0,2-1.6,3.6-3.7,3.6C78.5,59.9,77,58.3,77,56.4z M82.7,56.4
		L82.7,56.4c0-1.2-0.9-2.2-2.1-2.2c-1.3,0-2.1,1-2.1,2.2v0c0,1.2,0.9,2.2,2.1,2.2C81.9,58.5,82.7,57.5,82.7,56.4z" />
  </g>
  <g class="st3">
    <path d="M85.9,52.9h1.6v1.5c0.4-1,1.2-1.7,2.4-1.7v1.7h-0.1c-1.4,0-2.3,0.9-2.3,2.7v2.6h-1.6V52.9z" />
  </g>
  <g class="st3">
    <path d="M90.6,56.4L90.6,56.4c0-2,1.4-3.6,3.4-3.6c2.2,0,3.3,1.7,3.3,3.7c0,0.1,0,0.3,0,0.4h-5c0.2,1.1,1,1.7,2,1.7
		c0.8,0,1.3-0.3,1.9-0.8l0.9,0.8c-0.7,0.8-1.5,1.3-2.8,1.3C92.2,59.9,90.6,58.5,90.6,56.4z M95.7,55.8C95.6,54.8,95,54,94,54
		c-1,0-1.6,0.7-1.8,1.8H95.7z" />
  </g>
</svg>