<?xml version="1.0" encoding="utf-8"?>
<!-- Generator: Adobe Illustrator 26.3.1, SVG Export Plug-In . SVG Version: 6.00 Build 0)  -->
<svg version="1.1" id="Layer_1" xmlns="http://www.w3.org/2000/svg" xmlns:xlink="http://www.w3.org/1999/xlink" x="0px" y="0px" viewBox="0 0 816.6 317.3" style="enable-background:new 0 0 816.6 317.3;" xml:space="preserve">
  <style type="text/css">
	.st0{fill:#C1A8C2;}
	.st1{fill-rule:evenodd;clip-rule:evenodd;fill:#FFFFFF;}
	.st2{clip-path:url(#SVGID_00000125588973223900321820000013112350900189299594_);}
	.st3{clip-path:url(#SVGID_00000097476780249509064960000016404181298981870752_);}
	.st4{clip-path:url(#SVGID_00000030459275138914889770000004422600912102708373_);}
	.st5{fill:#642667;}
	.st6{fill-rule:evenodd;clip-rule:evenodd;fill:#FEDAD0;}
	.st7{fill:#FC9073;}
	.st8{fill-rule:evenodd;clip-rule:evenodd;fill:#D9D9D9;}
	.st9{fill:#DAECD9;}
	.st10{fill:#90C78C;}
	.st11{fill:#E0D4E1;}
	.st12{fill-rule:evenodd;clip-rule:evenodd;fill:#47A23F;}
	.st13{fill-rule:evenodd;clip-rule:evenodd;fill:#FA4616;}
	.st14{enable-background:new    ;}
	.st15{fill:#47A23F;}
	.st16{fill:#FFFFFF;}
	.st17{fill:#FA4616;}
</style>
  <g id="_x31_"></g>
  <g id="Layer_2_00000170254510077420529350000010365210243552244148_"></g>
  <g id="Layer_6">
    <g>
      <g>
        <path class="st0" d="M294.9,82.8c-1.3,0-2.3-1-2.3-2.3V55c0-1.3,1-2.3,2.3-2.3s2.3,1,2.3,2.3v25.5
				C297.2,81.8,296.2,82.8,294.9,82.8z" />
      </g>
      <g>
        <path class="st1" d="M219.8,28.6c0-14.5,11.8-26.3,26.3-26.3h97.7c14.5,0,26.3,11.8,26.3,26.3l0,0c0,14.5-11.8,26.3-26.3,26.3
				h-97.7C231.6,55,219.8,43.2,219.8,28.6L219.8,28.6z" />
      </g>
      <g>
        <path class="st0" d="M245.9,57.2c-7.5,0-14.6-2.9-19.9-8.2c-5.4-5.4-8.5-12.6-8.5-20.3c0-15.8,12.8-28.6,28.6-28.6h97.7
				c15.8,0,28.6,12.8,28.6,28.6c0,15.8-12.8,28.6-28.6,28.6h-97.7C246,57.2,246,57.2,245.9,57.2z M246.1,4.6c-13.2,0-24,10.8-24,24
				c0,6.5,2.5,12.6,7.1,17.1c4.5,4.5,10.4,6.9,16.7,6.9c0.1,0,0.1,0,0.2,0h97.7c13.2,0,24-10.8,24-24s-10.8-24-24-24H246.1z" />
      </g>
      <g>
        <g>
          <g>
            <defs>
              <rect id="SVGID_1_" x="234.7" y="13.6" width="30.1" height="30.1" />
            </defs>
            <clipPath id="SVGID_00000028294458683360272740000007733080768520510605_">
              <use xlink:href="#SVGID_1_" style="overflow:visible;" />
            </clipPath>
            <g style="clip-path:url(#SVGID_00000028294458683360272740000007733080768520510605_);">
              <g>
                <g>
                  <defs>
                    <polyline id="SVGID_00000057108300479772433810000012494942399682907785_" points="234.7,13.6 234.7,13.6 234.7,43.7 
										264.8,43.7 264.8,13.6 									" />
                  </defs>
                  <clipPath id="SVGID_00000108274861631170022100000005127890068877961140_">
                    <use xlink:href="#SVGID_00000057108300479772433810000012494942399682907785_" style="overflow:visible;" />
                  </clipPath>
                </g>
                <g>
                  <defs>
                    <polyline id="SVGID_00000000206118877560947570000000954727221592251837_" points="234.7,13.6 234.7,13.6 234.7,43.7 
										264.8,43.7 264.8,13.6 									" />
                  </defs>
                  <defs>
                    <polyline id="SVGID_00000123419663278764149060000013507214282123263145_" points="234.7,13.6 234.7,13.6 234.7,43.7 
										264.8,43.7 264.8,13.6 									" />
                  </defs>
                  <clipPath id="SVGID_00000171677436865048427420000016988040305132433813_">
                    <use xlink:href="#SVGID_00000000206118877560947570000000954727221592251837_" style="overflow:visible;" />
                  </clipPath>
                  <clipPath id="SVGID_00000129193657022927535980000006872201470895636883_" style="clip-path:url(#SVGID_00000171677436865048427420000016988040305132433813_);">
                    <use xlink:href="#SVGID_00000123419663278764149060000013507214282123263145_" style="overflow:visible;" />
                  </clipPath>
                  <g style="clip-path:url(#SVGID_00000129193657022927535980000006872201470895636883_);">
                    <path class="st5" d="M258.3,32.4L258.3,32.4c-1.5,3.3-4.9,5.5-8.5,5.5c-3.7,0-7-2.1-8.5-5.5c-0.1-0.3-0.1-0.6,0.1-0.9
										c0.2-0.3,0.5-0.4,0.8-0.4h15.4c0.3,0,0.6,0.2,0.8,0.4C258.4,31.8,258.4,32.1,258.3,32.4L258.3,32.4z M242.8,22.9
										L242.8,22.9c0.3-0.3,0.8-0.7,1.7-0.7c0.6,0,1.2,0.2,1.6,0.7c0.5,0.4,0.7,1,0.7,1.7c0,0.6-0.2,1.2-0.7,1.7s-1,0.7-1.7,0.7
										c-0.9,0-1.4-0.4-1.7-0.7c-0.4-0.5-0.6-1-0.6-1.6C242.2,23.9,242.4,23.3,242.8,22.9L242.8,22.9z M253.2,22.9L253.2,22.9
										c0.3-0.3,0.8-0.7,1.7-0.7c0.6,0,1.2,0.2,1.6,0.7c0.5,0.4,0.7,1,0.7,1.7c0,0.6-0.2,1.2-0.7,1.7c-0.4,0.5-1,0.7-1.7,0.7
										c-0.9,0-1.4-0.4-1.7-0.7c-0.4-0.5-0.6-1-0.6-1.6C252.6,23.9,252.8,23.3,253.2,22.9L253.2,22.9z M249.7,13.5L249.7,13.5
										c-8.3,0-15,6.7-15,15s6.7,15,15,15s15-6.7,15-15S258,13.5,249.7,13.5L249.7,13.5z" />
                  </g>
                </g>
              </g>
            </g>
          </g>
        </g>
      </g>
      <g>
        <g>
          <path class="st6" d="M448.2,118.7c0-14.5,11.8-26.3,26.3-26.3h97.7c14.5,0,26.3,11.8,26.3,26.3l0,0c0,14.5-11.8,26.3-26.3,26.3
					h-97.7C460,145,448.2,133.3,448.2,118.7L448.2,118.7z" />
        </g>
        <g>
          <path class="st7" d="M572.2,147.3h-97.7c-15.8,0-28.6-12.8-28.6-28.6c0-15.8,12.8-28.6,28.6-28.6h97.7
					c15.8,0,28.6,12.8,28.6,28.6C600.8,134.5,588,147.3,572.2,147.3z M474.5,94.7c-13.2,0-24,10.8-24,24s10.8,24,24,24h97.7
					c13.2,0,24-10.8,24-24s-10.8-24-24-24H474.5z" />
        </g>
      </g>
      <g>
        <path class="st0" d="M308,188.5l-11.3,12.9c-0.9,1.1-2.6,1.1-3.5,0l-11.3-12.9c-1.1-1.3-1-3.2,0.3-4.3s3.2-1,4.3,0.3l10.8,12.3
				h-4.6l10.8-12.3c1.1-1.3,3.1-1.4,4.3-0.3C309,185.3,309.1,187.2,308,188.5z M298,147v51.8c0,1.7-1.4,3.1-3.1,3.1
				s-3.1-1.4-3.1-3.1V147c0-1.7,1.4-3.1,3.1-3.1S298,145.3,298,147z" />
      </g>
      <g>
        <path class="st0" d="M308,76.2l-11.3,12.9c-0.9,1.1-2.6,1.1-3.5,0l-11.3-12.9c-1.1-1.3-1-3.2,0.3-4.3c1.3-1.1,3.2-1,4.3,0.3
				l10.8,12.3h-4.6l10.8-12.3c1.1-1.3,3.1-1.4,4.3-0.3C309,73,309.1,74.9,308,76.2z" />
      </g>
      <g>
        <path class="st0" d="M432.9,106.6l12.3,10.8c1.4,1.2,1.4,3.4,0,4.6l-12.3,10.8c-1.3,1.1-3.2,1-4.3-0.3c-1.1-1.3-1-3.2,0.3-4.3
				l12.3-10.8v4.6l-12.3-10.8c-1.3-1.1-1.4-3.1-0.3-4.3C429.7,105.6,431.6,105.5,432.9,106.6z M367.2,116.6h76
				c1.7,0,3.1,1.4,3.1,3.1s-1.4,3.1-3.1,3.1h-76c-1.7,0-3.1-1.4-3.1-3.1S365.5,116.6,367.2,116.6z" />
      </g>
      <g>
        <g>
          <path class="st8" d="M160.8,292.7H18.2c-10,0-18.2-8.1-18.2-18.2v-73.1c0-10.1,8.2-18.2,18.2-18.2h142.5
					c10.1,0,18.2,8.2,18.2,18.2v73.1C179,284.6,170.8,292.7,160.8,292.7z" />
        </g>
        <g>
          <polygon class="st8" points="166.4,272.2 207.4,248.5 166.4,248.5 				" />
        </g>
      </g>
      <g>
        <path class="st9" d="M214,232.8c0-15.6,12.6-28.2,28.2-28.2h105.5c15.6,0,28.2,12.6,28.2,28.2S363.2,261,347.7,261H242.2
				C226.6,261,214,248.4,214,232.8z" />
        <path class="st10" d="M347.7,263.2H242.2c-16.7,0-30.4-13.6-30.4-30.4s13.6-30.4,30.4-30.4h105.5c16.7,0,30.4,13.6,30.4,30.4
				S364.4,263.2,347.7,263.2z M242.2,206.8c-14.4,0-26,11.7-26,26s11.7,26,26,26h105.5c14.4,0,26-11.7,26-26s-11.7-26-26-26H242.2z" />
      </g>
      <g>
        <polygon class="st11" points="222.2,120.2 294.9,92 367.6,120.2 294.9,148.3 			" />
        <path class="st0" d="M294.9,150.6c-0.3,0-0.6-0.1-0.8-0.2l-72.7-28.1c-0.9-0.3-1.5-1.2-1.5-2.1c0-0.9,0.6-1.8,1.5-2.1l72.7-28.2
				c0.5-0.2,1.1-0.2,1.6,0l72.7,28.2c0.9,0.3,1.5,1.2,1.5,2.1c0,0.9-0.6,1.8-1.5,2.1l-72.7,28.1
				C295.5,150.5,295.2,150.6,294.9,150.6z M228.5,120.2l66.4,25.7l66.4-25.7l-66.4-25.8L228.5,120.2z" />
      </g>
      <g>
        <path class="st12" d="M214,289.3c0-6.6,5.3-11.9,11.9-11.9h81.6c6.6,0,11.9,5.3,11.9,11.9v16.1c0,6.6-5.3,11.9-11.9,11.9H226
				c-6.6,0-11.9-5.3-11.9-11.9v-16.1H214z" />
      </g>
      <g>
        <path class="st13" d="M319.5,289.3c0-6.6,5.3-11.9,11.9-11.9h32.5c6.6,0,11.9,5.3,11.9,11.9v16.1c0,6.6-5.3,11.9-11.9,11.9h-32.5
				c-6.6,0-11.9-5.3-11.9-11.9V289.3z" />
      </g>
      <g>
        <path class="st12" d="M448.5,176.6c0-6.6,5.3-11.9,11.9-11.9H541c6.6,0,11.9,5.3,11.9,11.9v16.1c0,6.6-5.3,11.9-11.9,11.9h-80.6
				c-6.6,0-11.9-5.3-11.9-11.9V176.6z" />
      </g>
      <g>
        <path class="st13" d="M552.9,176.6c0-6.6,5.3-11.9,11.9-11.9h32.5c6.6,0,11.9,5.3,11.9,11.9v16.1c0,6.6-5.3,11.9-11.9,11.9h-32.5
				c-6.6,0-11.9-5.3-11.9-11.9V176.6z" />
      </g>
      <g>
        <g>
          <path class="st8" d="M655.8,172.9h142.5c10.1,0,18.2-8.2,18.2-18.2V52.3c0-10.1-8.2-18.2-18.2-18.2H655.8
					c-10.1,0-18.2,8.2-18.2,18.2v102.3C637.6,164.7,645.8,172.9,655.8,172.9z" />
        </g>
        <g>
          <polygon class="st8" points="650.2,152.3 609.2,128.6 650.2,128.6 				" />
        </g>
      </g>
      <g class="st14">
        <path class="st5" d="M263.6,116.5h1.8l3.9,9.2h-2.1l-0.8-2h-3.8l-0.8,2h-2L263.6,116.5z M265.7,121.8l-1.2-3l-1.2,3H265.7z" />
        <path class="st5" d="M269.8,122.2L269.8,122.2c0-2,1.5-3.7,3.7-3.7c1.3,0,2.1,0.4,2.8,1.2l-1.2,1.3c-0.4-0.5-0.9-0.8-1.6-0.8
				c-1,0-1.7,0.9-1.7,1.9v0c0,1.1,0.7,1.9,1.8,1.9c0.7,0,1.1-0.3,1.6-0.7l1.2,1.2c-0.7,0.7-1.5,1.3-2.8,1.3
				C271.4,125.8,269.8,124.2,269.8,122.2z" />
        <path class="st5" d="M277.1,122.2L277.1,122.2c0-2,1.5-3.7,3.7-3.7c1.3,0,2.1,0.4,2.8,1.2l-1.2,1.3c-0.4-0.5-0.9-0.8-1.6-0.8
				c-1,0-1.7,0.9-1.7,1.9v0c0,1.1,0.7,1.9,1.8,1.9c0.7,0,1.1-0.3,1.6-0.7l1.2,1.2c-0.7,0.7-1.5,1.3-2.8,1.3
				C278.6,125.8,277.1,124.2,277.1,122.2z" />
        <path class="st5" d="M284.3,122.2L284.3,122.2c0-2,1.4-3.7,3.4-3.7c2.3,0,3.4,1.8,3.4,3.8c0,0.2,0,0.3,0,0.5h-4.8
				c0.2,0.9,0.8,1.4,1.7,1.4c0.7,0,1.1-0.2,1.7-0.7l1.1,1c-0.6,0.8-1.6,1.3-2.8,1.3C285.8,125.8,284.3,124.3,284.3,122.2z
				 M289.2,121.6c-0.1-0.9-0.6-1.5-1.5-1.5c-0.8,0-1.4,0.6-1.5,1.5H289.2z" />
        <path class="st5" d="M292.6,118.7h2v1c0.5-0.7,1.1-1.1,2.2-1.1c1.6,0,3.2,1.3,3.2,3.6v0c0,2.3-1.5,3.6-3.2,3.6
				c-1.1,0-1.7-0.5-2.2-1v3h-2V118.7z M297.9,122.1L297.9,122.1c0-1.2-0.8-2-1.7-2c-0.9,0-1.7,0.8-1.7,1.9v0c0,1.2,0.8,1.9,1.7,1.9
				C297.2,124.1,297.9,123.3,297.9,122.1z" />
        <path class="st5" d="M301.7,123.6v-3.3h-0.8v-1.7h0.8v-1.8h2v1.8h1.6v1.7h-1.6v3c0,0.5,0.2,0.7,0.6,0.7c0.4,0,0.7-0.1,1-0.2v1.6
				c-0.4,0.2-0.9,0.4-1.6,0.4C302.5,125.7,301.7,125.3,301.7,123.6z" />
        <path class="st5" d="M306.2,122.2L306.2,122.2c0-2,1.4-3.7,3.4-3.7c2.3,0,3.4,1.8,3.4,3.8c0,0.2,0,0.3,0,0.5h-4.8
				c0.2,0.9,0.8,1.4,1.7,1.4c0.7,0,1.1-0.2,1.7-0.7l1.1,1c-0.6,0.8-1.6,1.3-2.8,1.3C307.8,125.8,306.2,124.3,306.2,122.2z
				 M311.1,121.6c-0.1-0.9-0.6-1.5-1.5-1.5c-0.8,0-1.4,0.6-1.5,1.5H311.1z" />
        <path class="st5" d="M314.2,122.1L314.2,122.1c0-2.4,1.5-3.6,3.2-3.6c1.1,0,1.7,0.5,2.2,1v-3.4h2v9.5h-2v-1
				c-0.5,0.7-1.1,1.1-2.2,1.1C315.8,125.8,314.2,124.5,314.2,122.1z M319.6,122.1L319.6,122.1c0-1.2-0.8-2-1.7-2
				c-0.9,0-1.7,0.8-1.7,1.9v0c0,1.2,0.8,1.9,1.7,1.9C318.8,124.1,319.6,123.3,319.6,122.1z" />
        <path class="st5" d="M324.7,120.4L324.7,120.4c1.7-0.1,2.3-0.6,2.3-1.2v0c0-0.6-0.4-0.9-1.2-0.9c-0.7,0-1.4,0.3-2,0.9l-1.2-1.3
				c0.8-0.8,1.8-1.4,3.2-1.4c1.9,0,3.1,1,3.1,2.7v0c0,1.7-1.1,2.3-2.6,2.6l-0.1,0.8H325L324.7,120.4z M324.6,123.5h2.1v2.1h-2.1
				V123.5z" />
      </g>
      <g class="st14">
        <path d="M18.2,197.8h2.3l4.8,11.3h-2.6l-1-2.5h-4.7l-1,2.5h-2.5L18.2,197.8z M20.8,204.4l-1.5-3.6l-1.5,3.6H20.8z" />
        <path d="M26.7,200.5h2.4v1.2c0.6-0.8,1.4-1.4,2.7-1.4c2,0,3.9,1.6,3.9,4.4v0c0,2.9-1.9,4.4-3.9,4.4c-1.3,0-2.1-0.6-2.7-1.3v3.7
				h-2.4V200.5z M33.3,204.8L33.3,204.8c0-1.5-1-2.4-2.1-2.4c-1.1,0-2.1,0.9-2.1,2.4v0c0,1.4,0.9,2.4,2.1,2.4
				C32.4,207.2,33.3,206.3,33.3,204.8z" />
        <path d="M37.5,200.5H40v1.2c0.6-0.8,1.4-1.4,2.7-1.4c2,0,3.9,1.6,3.9,4.4v0c0,2.9-1.9,4.4-3.9,4.4c-1.3,0-2.1-0.6-2.7-1.3v3.7
				h-2.4V200.5z M44.1,204.8L44.1,204.8c0-1.5-1-2.4-2.1-2.4c-1.1,0-2.1,0.9-2.1,2.4v0c0,1.4,0.9,2.4,2.1,2.4
				C43.2,207.2,44.1,206.3,44.1,204.8z" />
        <path d="M48.5,197.4h2.4v11.7h-2.4V197.4z" />
        <path d="M53.2,197.4h2.6v2.2h-2.6V197.4z M53.3,200.5h2.4v8.6h-2.4V200.5z" />
        <path d="M57.6,204.8L57.6,204.8c0-2.5,1.9-4.5,4.5-4.5c1.6,0,2.6,0.5,3.4,1.4l-1.5,1.6c-0.5-0.6-1.1-0.9-2-0.9
				c-1.2,0-2.1,1.1-2.1,2.3v0c0,1.3,0.8,2.4,2.2,2.4c0.8,0,1.4-0.4,2-0.9l1.4,1.4c-0.8,0.9-1.8,1.6-3.5,1.6
				C59.5,209.3,57.6,207.3,57.6,204.8z" />
        <path d="M66.6,206.6L66.6,206.6c0-1.9,1.4-2.8,3.5-2.8c0.9,0,1.5,0.1,2.1,0.4v-0.1c0-1-0.6-1.6-1.8-1.6c-0.9,0-1.6,0.2-2.4,0.5
				l-0.6-1.9c0.9-0.4,1.9-0.7,3.3-0.7c1.3,0,2.3,0.4,2.9,1c0.6,0.6,0.9,1.6,0.9,2.7v5h-2.4v-0.9c-0.6,0.7-1.4,1.1-2.6,1.1
				C68,209.2,66.6,208.3,66.6,206.6z M72.2,206.1v-0.4c-0.4-0.2-1-0.3-1.6-0.3c-1,0-1.7,0.4-1.7,1.2v0c0,0.7,0.5,1,1.3,1
				C71.4,207.6,72.2,206.9,72.2,206.1z" />
        <path d="M76.9,206.7v-4.1h-1v-2.1h1v-2.2h2.4v2.2h2v2.1h-2v3.7c0,0.6,0.2,0.8,0.8,0.8c0.4,0,0.8-0.1,1.2-0.3v2
				c-0.5,0.3-1.1,0.5-1.9,0.5C77.9,209.2,76.9,208.6,76.9,206.7z" />
        <path d="M83.2,197.4h2.6v2.2h-2.6V197.4z M83.3,200.5h2.4v8.6h-2.4V200.5z" />
        <path d="M87.6,204.8L87.6,204.8c0-2.5,2-4.5,4.7-4.5c2.7,0,4.6,2,4.6,4.4v0c0,2.5-2,4.5-4.7,4.5
				C89.6,209.3,87.6,207.3,87.6,204.8z M94.5,204.8L94.5,204.8c0-1.3-0.9-2.4-2.3-2.4c-1.4,0-2.2,1.1-2.2,2.3v0
				c0,1.3,0.9,2.4,2.3,2.4C93.6,207.2,94.5,206.1,94.5,204.8z" />
        <path d="M98.6,200.5h2.4v1.2c0.6-0.7,1.3-1.4,2.5-1.4c1.8,0,2.9,1.2,2.9,3.2v5.6h-2.4v-4.8c0-1.2-0.5-1.7-1.5-1.7
				s-1.5,0.6-1.5,1.7v4.8h-2.4V200.5z" />
        <path d="M112.9,207.5l1.5-1.7c1,0.8,2.1,1.4,3.3,1.4c1,0,1.6-0.4,1.6-1.1v0c0-0.6-0.4-0.9-2.3-1.4c-2.3-0.6-3.7-1.2-3.7-3.4v0
				c0-2,1.6-3.4,3.9-3.4c1.6,0,3,0.5,4.2,1.4l-1.3,1.9c-1-0.7-2-1.1-2.9-1.1s-1.4,0.4-1.4,1v0c0,0.7,0.5,1,2.4,1.5
				c2.3,0.6,3.6,1.4,3.6,3.4v0c0,2.2-1.7,3.5-4.1,3.5C115.9,209.2,114.2,208.7,112.9,207.5z" />
        <path d="M123.4,203.5L123.4,203.5c0-3.2,2.4-5.8,5.8-5.8c2.1,0,3.4,0.7,4.4,1.7l-1.6,1.8c-0.9-0.8-1.7-1.3-2.9-1.3
				c-1.9,0-3.2,1.6-3.2,3.5v0c0,1.9,1.3,3.5,3.2,3.5c1.3,0,2.1-0.5,2.9-1.3l1.6,1.6c-1.2,1.2-2.4,2-4.6,2
				C125.8,209.3,123.4,206.7,123.4,203.5z" />
      </g>
      <g class="st14">
        <path d="M13.8,227.1L13.8,227.1c0-2.6,1.9-4.7,4.7-4.7c1.7,0,2.7,0.6,3.6,1.4l-1,1.2c-0.7-0.7-1.5-1.1-2.6-1.1
				c-1.7,0-3,1.4-3,3.2v0c0,1.8,1.3,3.2,3,3.2c1.1,0,1.8-0.4,2.6-1.2l1,1c-0.9,1-2,1.6-3.7,1.6C15.7,231.8,13.8,229.7,13.8,227.1z" />
        <path d="M23.1,229.6L23.1,229.6c0-1.5,1.2-2.2,2.8-2.2c0.8,0,1.3,0.1,1.8,0.3v-0.2c0-1-0.6-1.5-1.7-1.5c-0.8,0-1.3,0.2-2,0.4
				l-0.4-1.2c0.8-0.3,1.5-0.6,2.6-0.6c1,0,1.8,0.3,2.3,0.8c0.5,0.5,0.7,1.2,0.7,2.1v4.1h-1.5v-0.9c-0.5,0.6-1.2,1-2.2,1
				C24.3,231.7,23.1,231,23.1,229.6z M27.9,229.1v-0.5c-0.4-0.2-0.9-0.3-1.6-0.3c-1,0-1.6,0.4-1.6,1.1v0c0,0.7,0.6,1,1.3,1
				C27.1,230.6,27.9,230,27.9,229.1z" />
        <path d="M31.2,224.7h1.6v1.1c0.4-0.6,1.1-1.2,2.1-1.2c1.5,0,2.4,1,2.4,2.6v4.4h-1.6v-3.9c0-1.1-0.5-1.7-1.5-1.7
				c-0.9,0-1.5,0.6-1.5,1.7v3.9h-1.6V224.7z" />
        <path d="M44.8,230.5v1.1h-1.6v-9.5h1.6v3.8c0.5-0.7,1.2-1.3,2.3-1.3c1.6,0,3.2,1.3,3.2,3.6v0c0,2.3-1.6,3.6-3.2,3.6
				C46,231.7,45.3,231.2,44.8,230.5z M48.7,228.2L48.7,228.2c0-1.4-0.9-2.2-2-2.2c-1.1,0-2,0.9-2,2.2v0c0,1.3,0.9,2.2,2,2.2
				C47.8,230.4,48.7,229.5,48.7,228.2z" />
        <path d="M51.5,228.2L51.5,228.2c0-2,1.4-3.6,3.4-3.6c2.2,0,3.3,1.7,3.3,3.7c0,0.1,0,0.3,0,0.4h-5c0.2,1.1,1,1.7,2,1.7
				c0.8,0,1.3-0.3,1.9-0.8l0.9,0.8c-0.6,0.8-1.5,1.3-2.8,1.3C53.1,231.8,51.5,230.3,51.5,228.2z M56.6,227.7c-0.1-1-0.7-1.8-1.7-1.8
				c-1,0-1.6,0.7-1.8,1.8H56.6z" />
        <path d="M65.2,230.5v1.1h-1.6v-9.5h1.6v3.8c0.5-0.7,1.2-1.3,2.3-1.3c1.6,0,3.2,1.3,3.2,3.6v0c0,2.3-1.6,3.6-3.2,3.6
				C66.4,231.7,65.7,231.2,65.2,230.5z M69.2,228.2L69.2,228.2c0-1.4-0.9-2.2-2-2.2c-1.1,0-2,0.9-2,2.2v0c0,1.3,0.9,2.2,2,2.2
				C68.3,230.4,69.2,229.5,69.2,228.2z" />
        <path d="M72.3,229.1v-4.4h1.6v3.9c0,1.1,0.5,1.7,1.5,1.7c0.9,0,1.5-0.6,1.5-1.7v-3.9h1.6v6.9h-1.6v-1.1c-0.4,0.7-1.1,1.2-2.1,1.2
				C73.2,231.7,72.3,230.7,72.3,229.1z" />
        <path d="M80.5,222.2h1.7v1.5h-1.7V222.2z M80.5,224.7h1.6v6.9h-1.6V224.7z" />
        <path d="M84.3,222.1h1.6v9.5h-1.6V222.1z" />
        <path d="M88.2,229.7v-3.6h-0.9v-1.4h0.9v-1.9h1.6v1.9h1.8v1.4h-1.8v3.4c0,0.6,0.3,0.9,0.8,0.9c0.4,0,0.7-0.1,1-0.2v1.3
				c-0.4,0.2-0.8,0.4-1.4,0.4C89,231.7,88.2,231.2,88.2,229.7z" />
        <path d="M97.1,229.1v-4.4h1.6v3.9c0,1.1,0.5,1.7,1.5,1.7c0.9,0,1.5-0.6,1.5-1.7v-3.9h1.6v6.9h-1.6v-1.1c-0.4,0.7-1.1,1.2-2.1,1.2
				C98,231.7,97.1,230.7,97.1,229.1z" />
        <path d="M104.6,230.7l0.7-1.1c0.8,0.6,1.5,0.8,2.2,0.8c0.7,0,1.1-0.3,1.1-0.7v0c0-0.5-0.7-0.7-1.5-1c-1-0.3-2.1-0.7-2.1-2v0
				c0-1.3,1.1-2.1,2.4-2.1c0.9,0,1.8,0.3,2.5,0.8l-0.6,1.1c-0.7-0.4-1.4-0.7-1.9-0.7c-0.6,0-1,0.3-1,0.7v0c0,0.5,0.7,0.7,1.5,1
				c1,0.3,2.1,0.8,2.1,2v0c0,1.4-1.1,2.2-2.5,2.2C106.6,231.7,105.5,231.4,104.6,230.7z" />
        <path d="M111.7,222.2h1.7v1.5h-1.7V222.2z M111.8,224.7h1.6v6.9h-1.6V224.7z" />
        <path d="M115.4,224.7h1.6v1.1c0.4-0.6,1.1-1.2,2.1-1.2c1.5,0,2.4,1,2.4,2.6v4.4H120v-3.9c0-1.1-0.5-1.7-1.5-1.7
				c-0.9,0-1.5,0.6-1.5,1.7v3.9h-1.6V224.7z" />
        <path d="M123.5,232.9l0.6-1.2c0.7,0.5,1.5,0.7,2.4,0.7c1.4,0,2.2-0.7,2.2-2.1v-0.5c-0.6,0.7-1.3,1.2-2.4,1.2
				c-1.6,0-3.1-1.2-3.1-3.2v0c0-2,1.5-3.2,3.1-3.2c1.2,0,1.9,0.5,2.4,1.2v-1h1.6v5.5c0,1.2-0.3,2-0.9,2.6c-0.6,0.6-1.6,0.9-2.8,0.9
				C125.4,233.7,124.4,233.4,123.5,232.9z M128.7,227.8L128.7,227.8c0-1.1-0.9-1.9-2-1.9c-1.1,0-2,0.7-2,1.9v0c0,1.1,0.9,1.9,2,1.9
				C127.8,229.7,128.7,229,128.7,227.8z" />
      </g>
      <g class="st14">
        <path d="M14,237.7h1.6v3.7c0.4-0.6,1.1-1.2,2.1-1.2c1.5,0,2.4,1,2.4,2.6v4.4h-1.6v-3.9c0-1.1-0.5-1.7-1.5-1.7
				c-0.9,0-1.5,0.6-1.5,1.7v3.9H14V237.7z" />
        <path d="M22.1,237.8h1.7v1.5h-1.7V237.8z M22.1,240.3h1.6v6.9h-1.6V240.3z" />
        <path d="M25.2,246.3l0.7-1.1c0.8,0.6,1.5,0.8,2.2,0.8c0.7,0,1.1-0.3,1.1-0.7v0c0-0.5-0.7-0.7-1.5-1c-1-0.3-2.1-0.7-2.1-2v0
				c0-1.3,1.1-2.1,2.4-2.1c0.9,0,1.8,0.3,2.5,0.8l-0.6,1.1c-0.7-0.4-1.4-0.7-1.9-0.7c-0.6,0-1,0.3-1,0.7v0c0,0.5,0.7,0.7,1.5,1
				c1,0.3,2.1,0.8,2.1,2v0c0,1.4-1.1,2.2-2.5,2.2C27.2,247.3,26.1,247,25.2,246.3z" />
        <path d="M32.5,245.3v-3.6h-0.9v-1.4h0.9v-1.9h1.6v1.9h1.8v1.4h-1.8v3.4c0,0.6,0.3,0.9,0.8,0.9c0.4,0,0.7-0.1,1-0.2v1.3
				c-0.4,0.2-0.8,0.4-1.4,0.4C33.3,247.3,32.5,246.8,32.5,245.3z" />
        <path d="M36.9,243.8L36.9,243.8c0-2,1.6-3.6,3.7-3.6c2.1,0,3.7,1.6,3.7,3.6v0c0,2-1.6,3.6-3.7,3.6
				C38.5,247.4,36.9,245.8,36.9,243.8z M42.7,243.8L42.7,243.8c0-1.2-0.9-2.2-2.1-2.2c-1.3,0-2.1,1-2.1,2.2v0c0,1.2,0.9,2.2,2.1,2.2
				C41.9,246,42.7,245,42.7,243.8z" />
        <path d="M45.8,240.3h1.6v1.5c0.4-1,1.2-1.7,2.4-1.7v1.7h-0.1c-1.4,0-2.3,0.9-2.3,2.7v2.6h-1.6V240.3z" />
        <path d="M51.2,237.8h1.7v1.5h-1.7V237.8z M51.3,240.3h1.6v6.9h-1.6V240.3z" />
        <path d="M54.6,243.8L54.6,243.8c0-2,1.5-3.6,3.6-3.6c1.3,0,2.1,0.5,2.7,1.2l-1,1.1c-0.5-0.5-1-0.9-1.8-0.9c-1.1,0-2,1-2,2.2v0
				c0,1.2,0.8,2.2,2.1,2.2c0.7,0,1.3-0.3,1.8-0.8l0.9,0.9c-0.7,0.8-1.5,1.3-2.8,1.3C56.1,247.4,54.6,245.8,54.6,243.8z" />
        <path d="M61.9,245.2L61.9,245.2c0-1.5,1.2-2.2,2.8-2.2c0.8,0,1.3,0.1,1.8,0.3v-0.2c0-1-0.6-1.5-1.7-1.5c-0.8,0-1.3,0.2-2,0.4
				l-0.4-1.2c0.8-0.3,1.5-0.6,2.6-0.6c1,0,1.8,0.3,2.3,0.8c0.5,0.5,0.7,1.2,0.7,2.1v4.1h-1.5v-0.9c-0.5,0.6-1.2,1-2.2,1
				C63.1,247.3,61.9,246.6,61.9,245.2z M66.6,244.7v-0.5c-0.4-0.2-0.9-0.3-1.6-0.3c-1,0-1.6,0.4-1.6,1.1v0c0,0.7,0.6,1,1.3,1
				C65.8,246.2,66.6,245.6,66.6,244.7z" />
        <path d="M70.1,237.7h1.6v9.5h-1.6V237.7z" />
        <path d="M73.8,237.7h1.6v9.5h-1.6V237.7z" />
        <path d="M82.2,240.3h1.6l-2.7,7c-0.5,1.4-1.2,1.9-2.3,1.9c-0.6,0-1.1-0.2-1.6-0.4l0.5-1.2c0.3,0.2,0.6,0.3,0.9,0.3
				c0.4,0,0.7-0.2,1-0.8l-2.9-6.9h1.7l1.9,5.1L82.2,240.3z" />
        <path d="M88.6,245.2L88.6,245.2c0-1.5,1.2-2.2,2.8-2.2c0.8,0,1.3,0.1,1.8,0.3v-0.2c0-1-0.6-1.5-1.7-1.5c-0.8,0-1.3,0.2-2,0.4
				l-0.4-1.2c0.8-0.3,1.5-0.6,2.6-0.6c1,0,1.8,0.3,2.3,0.8c0.5,0.5,0.7,1.2,0.7,2.1v4.1h-1.5v-0.9c-0.5,0.6-1.2,1-2.2,1
				C89.8,247.3,88.6,246.6,88.6,245.2z M93.3,244.7v-0.5c-0.4-0.2-0.9-0.3-1.6-0.3c-1,0-1.6,0.4-1.6,1.1v0c0,0.7,0.6,1,1.3,1
				C92.5,246.2,93.3,245.6,93.3,244.7z" />
        <path d="M96.3,243.8L96.3,243.8c0-2,1.5-3.6,3.6-3.6c1.3,0,2.1,0.5,2.7,1.2l-1,1.1c-0.5-0.5-1-0.9-1.8-0.9c-1.1,0-2,1-2,2.2v0
				c0,1.2,0.8,2.2,2.1,2.2c0.7,0,1.3-0.3,1.8-0.8l0.9,0.9c-0.7,0.8-1.5,1.3-2.8,1.3C97.8,247.4,96.3,245.8,96.3,243.8z" />
        <path d="M103.6,243.8L103.6,243.8c0-2,1.5-3.6,3.6-3.6c1.3,0,2.1,0.5,2.7,1.2l-1,1.1c-0.5-0.5-1-0.9-1.8-0.9c-1.1,0-2,1-2,2.2v0
				c0,1.2,0.8,2.2,2.1,2.2c0.7,0,1.3-0.3,1.8-0.8l0.9,0.9c-0.7,0.8-1.5,1.3-2.8,1.3C105.1,247.4,103.6,245.8,103.6,243.8z" />
        <path d="M110.8,243.8L110.8,243.8c0-2,1.4-3.6,3.4-3.6c2.2,0,3.3,1.7,3.3,3.7c0,0.1,0,0.3,0,0.4h-5c0.2,1.1,1,1.7,2,1.7
				c0.8,0,1.3-0.3,1.9-0.8l0.9,0.8c-0.7,0.8-1.5,1.3-2.8,1.3C112.3,247.4,110.8,245.9,110.8,243.8z M115.9,243.3
				c-0.1-1-0.7-1.8-1.7-1.8c-1,0-1.6,0.7-1.8,1.8H115.9z" />
        <path d="M119,240.3h1.6v1.1c0.5-0.7,1.2-1.3,2.3-1.3c1.6,0,3.2,1.3,3.2,3.6v0c0,2.3-1.6,3.6-3.2,3.6c-1.1,0-1.9-0.6-2.3-1.2v3.1
				H119V240.3z M124.5,243.8L124.5,243.8c0-1.4-0.9-2.2-2-2.2c-1.1,0-2,0.9-2,2.2v0c0,1.3,0.9,2.2,2,2.2
				C123.6,246,124.5,245.1,124.5,243.8z" />
        <path d="M128.1,245.3v-3.6h-0.9v-1.4h0.9v-1.9h1.6v1.9h1.8v1.4h-1.8v3.4c0,0.6,0.3,0.9,0.8,0.9c0.4,0,0.7-0.1,1-0.2v1.3
				c-0.4,0.2-0.8,0.4-1.4,0.4C128.9,247.3,128.1,246.8,128.1,245.3z" />
        <path d="M132.5,243.8L132.5,243.8c0-2,1.4-3.6,3.4-3.6c2.2,0,3.3,1.7,3.3,3.7c0,0.1,0,0.3,0,0.4h-5c0.2,1.1,1,1.7,2,1.7
				c0.8,0,1.3-0.3,1.9-0.8l0.9,0.8c-0.7,0.8-1.5,1.3-2.8,1.3C134,247.4,132.5,245.9,132.5,243.8z M137.6,243.3
				c-0.1-1-0.7-1.8-1.7-1.8c-1,0-1.6,0.7-1.8,1.8H137.6z" />
        <path d="M140.4,243.8L140.4,243.8c0-2.3,1.5-3.6,3.2-3.6c1.1,0,1.8,0.6,2.3,1.2v-3.7h1.6v9.5h-1.6v-1.1c-0.5,0.7-1.2,1.3-2.3,1.3
				C142,247.3,140.4,246.1,140.4,243.8z M145.9,243.8L145.9,243.8c0-1.4-0.9-2.2-2-2.2c-1.1,0-2,0.8-2,2.2v0c0,1.3,0.9,2.2,2,2.2
				C145,246,145.9,245.1,145.9,243.8z" />
      </g>
      <g class="st14">
        <path d="M13.6,259.4L13.6,259.4c0-2,1.5-3.6,3.6-3.6c1.3,0,2.1,0.5,2.7,1.2l-1,1.1c-0.5-0.5-1-0.9-1.8-0.9c-1.1,0-2,1-2,2.2v0
				c0,1.2,0.8,2.2,2.1,2.2c0.7,0,1.3-0.3,1.8-0.8l0.9,0.9c-0.7,0.8-1.5,1.3-2.8,1.3C15.1,263,13.6,261.4,13.6,259.4z" />
        <path d="M21.3,260.3v-4.4h1.6v3.9c0,1.1,0.5,1.7,1.5,1.7c0.9,0,1.5-0.6,1.5-1.7v-3.9h1.6v6.9h-1.6v-1.1c-0.4,0.7-1.1,1.2-2.1,1.2
				C22.2,262.9,21.3,261.9,21.3,260.3z" />
        <path d="M28.9,261.9l0.7-1.1c0.8,0.6,1.5,0.8,2.2,0.8c0.7,0,1.1-0.3,1.1-0.7v0c0-0.5-0.7-0.7-1.5-1c-1-0.3-2.1-0.7-2.1-2v0
				c0-1.3,1.1-2.1,2.4-2.1c0.9,0,1.8,0.3,2.5,0.8l-0.6,1.1c-0.7-0.4-1.4-0.7-1.9-0.7c-0.6,0-1,0.3-1,0.7v0c0,0.5,0.7,0.7,1.5,1
				c1,0.3,2.1,0.8,2.1,2v0c0,1.4-1.1,2.2-2.5,2.2C30.9,262.9,29.8,262.6,28.9,261.9z" />
        <path d="M36.2,260.9v-3.6h-0.9v-1.4h0.9v-1.9h1.6v1.9h1.8v1.4h-1.8v3.4c0,0.6,0.3,0.9,0.8,0.9c0.4,0,0.7-0.1,1-0.2v1.3
				c-0.4,0.2-0.8,0.4-1.4,0.4C37,262.9,36.2,262.4,36.2,260.9z" />
        <path d="M40.6,259.4L40.6,259.4c0-2,1.6-3.6,3.7-3.6c2.1,0,3.7,1.6,3.7,3.6v0c0,2-1.6,3.6-3.7,3.6
				C42.2,263,40.6,261.4,40.6,259.4z M46.4,259.4L46.4,259.4c0-1.2-0.9-2.2-2.1-2.2c-1.3,0-2.1,1-2.1,2.2v0c0,1.2,0.9,2.2,2.1,2.2
				C45.6,261.6,46.4,260.6,46.4,259.4z" />
        <path d="M49.5,255.9h1.6v1c0.4-0.6,1-1.2,2.1-1.2c1,0,1.7,0.5,2.1,1.2c0.5-0.7,1.3-1.2,2.3-1.2c1.5,0,2.4,0.9,2.4,2.6v4.4h-1.6
				v-3.9c0-1.1-0.5-1.7-1.4-1.7c-0.9,0-1.5,0.6-1.5,1.7v3.9H54v-3.9c0-1.1-0.5-1.7-1.4-1.7s-1.5,0.7-1.5,1.7v3.9h-1.6V255.9z" />
        <path d="M61.5,259.4L61.5,259.4c0-2,1.4-3.6,3.4-3.6c2.2,0,3.3,1.7,3.3,3.7c0,0.1,0,0.3,0,0.4h-5c0.2,1.1,1,1.7,2,1.7
				c0.8,0,1.3-0.3,1.9-0.8l0.9,0.8c-0.7,0.8-1.5,1.3-2.8,1.3C63,263,61.5,261.5,61.5,259.4z M66.6,258.9c-0.1-1-0.7-1.8-1.7-1.8
				c-1,0-1.6,0.7-1.8,1.8H66.6z" />
        <path d="M69.7,255.9h1.6v1.5c0.4-1,1.2-1.7,2.4-1.7v1.7h-0.1c-1.4,0-2.3,0.9-2.3,2.7v2.6h-1.6V255.9z" />
        <path d="M74.5,261.9l0.7-1.1c0.8,0.6,1.5,0.8,2.2,0.8c0.7,0,1.1-0.3,1.1-0.7v0c0-0.5-0.7-0.7-1.5-1c-1-0.3-2.1-0.7-2.1-2v0
				c0-1.3,1.1-2.1,2.4-2.1c0.9,0,1.8,0.3,2.5,0.8l-0.6,1.1c-0.7-0.4-1.4-0.7-1.9-0.7c-0.6,0-1,0.3-1,0.7v0c0,0.5,0.7,0.7,1.5,1
				c1,0.3,2.1,0.8,2.1,2v0c0,1.4-1.1,2.2-2.5,2.2C76.5,262.9,75.4,262.6,74.5,261.9z" />
        <path d="M85.8,260.9v-3.6H85v-1.4h0.9v-1.9h1.6v1.9h1.8v1.4h-1.8v3.4c0,0.6,0.3,0.9,0.8,0.9c0.4,0,0.7-0.1,1-0.2v1.3
				c-0.4,0.2-0.8,0.4-1.4,0.4C86.7,262.9,85.8,262.4,85.8,260.9z" />
        <path d="M90.3,259.4L90.3,259.4c0-2,1.6-3.6,3.7-3.6c2.1,0,3.7,1.6,3.7,3.6v0c0,2-1.6,3.6-3.7,3.6
				C91.8,263,90.3,261.4,90.3,259.4z M96,259.4L96,259.4c0-1.2-0.9-2.2-2.1-2.2c-1.3,0-2.1,1-2.1,2.2v0c0,1.2,0.9,2.2,2.1,2.2
				C95.2,261.6,96,260.6,96,259.4z" />
        <path d="M102.5,255.9h1.6l1.4,4.7l1.5-4.7h1.4l1.5,4.7l1.4-4.7h1.6l-2.2,6.9h-1.4l-1.5-4.7l-1.5,4.7h-1.4L102.5,255.9z" />
        <path d="M114.3,253.3h1.6v3.7c0.4-0.6,1.1-1.2,2.1-1.2c1.5,0,2.4,1,2.4,2.6v4.4h-1.6v-3.9c0-1.1-0.5-1.7-1.5-1.7
				c-0.9,0-1.5,0.6-1.5,1.7v3.9h-1.6V253.3z" />
        <path d="M122,259.4L122,259.4c0-2,1.6-3.6,3.7-3.6c2.1,0,3.7,1.6,3.7,3.6v0c0,2-1.6,3.6-3.7,3.6C123.5,263,122,261.4,122,259.4z
				 M127.7,259.4L127.7,259.4c0-1.2-0.9-2.2-2.1-2.2c-1.3,0-2.1,1-2.1,2.2v0c0,1.2,0.9,2.2,2.1,2.2
				C126.9,261.6,127.7,260.6,127.7,259.4z" />
        <path d="M130.9,255.9h1.6v1c0.4-0.6,1-1.2,2.1-1.2c1,0,1.7,0.5,2.1,1.2c0.5-0.7,1.3-1.2,2.3-1.2c1.5,0,2.4,0.9,2.4,2.6v4.4h-1.6
				v-3.9c0-1.1-0.5-1.7-1.4-1.7c-0.9,0-1.5,0.6-1.5,1.7v3.9h-1.6v-3.9c0-1.1-0.5-1.7-1.4-1.7s-1.5,0.7-1.5,1.7v3.9h-1.6V255.9z" />
      </g>
      <g class="st14">
        <path d="M13.4,271.5H15l1.4,4.7l1.5-4.7h1.4l1.5,4.7l1.4-4.7h1.6l-2.2,6.9h-1.4l-1.5-4.7l-1.5,4.7h-1.4L13.4,271.5z" />
        <path d="M24.5,275L24.5,275c0-2,1.4-3.6,3.4-3.6c2.2,0,3.3,1.7,3.3,3.7c0,0.1,0,0.3,0,0.4h-5c0.2,1.1,1,1.7,2,1.7
				c0.8,0,1.3-0.3,1.9-0.8l0.9,0.8c-0.7,0.8-1.5,1.3-2.8,1.3C26,278.6,24.5,277.1,24.5,275z M29.6,274.5c-0.1-1-0.7-1.8-1.7-1.8
				c-1,0-1.6,0.7-1.8,1.8H29.6z" />
        <path d="M36.6,268.9h1.6v5.7l2.8-3H43l-2.7,2.8l2.8,4.1h-1.8l-2-3l-1,1v2h-1.6V268.9z" />
        <path d="M44.2,271.5h1.6v1.1c0.4-0.6,1.1-1.2,2.1-1.2c1.5,0,2.4,1,2.4,2.6v4.4h-1.6v-3.9c0-1.1-0.5-1.7-1.5-1.7
				c-0.9,0-1.5,0.6-1.5,1.7v3.9h-1.6V271.5z" />
        <path d="M51.9,275L51.9,275c0-2,1.6-3.6,3.7-3.6c2.1,0,3.7,1.6,3.7,3.6v0c0,2-1.6,3.6-3.7,3.6C53.4,278.6,51.9,277,51.9,275z
				 M57.6,275L57.6,275c0-1.2-0.9-2.2-2.1-2.2c-1.3,0-2.1,1-2.1,2.2v0c0,1.2,0.9,2.2,2.1,2.2C56.8,277.2,57.6,276.2,57.6,275z" />
        <path d="M59.9,271.5h1.6l1.4,4.7l1.5-4.7h1.4l1.5,4.7l1.4-4.7h1.6l-2.2,6.9h-1.4l-1.5-4.7l-1.5,4.7h-1.4L59.9,271.5z" />
        <path d="M75.2,275L75.2,275c0-2.3,1.5-3.6,3.2-3.6c1.1,0,1.8,0.6,2.3,1.2v-3.7h1.6v9.5h-1.6v-1.1c-0.5,0.7-1.2,1.3-2.3,1.3
				C76.8,278.5,75.2,277.3,75.2,275z M80.8,275L80.8,275c0-1.4-0.9-2.2-2-2.2c-1.1,0-2,0.8-2,2.2v0c0,1.3,0.9,2.2,2,2.2
				C79.8,277.2,80.8,276.3,80.8,275z" />
        <path d="M83.9,275L83.9,275c0-2,1.4-3.6,3.4-3.6c2.2,0,3.3,1.7,3.3,3.7c0,0.1,0,0.3,0,0.4h-5c0.2,1.1,1,1.7,2,1.7
				c0.8,0,1.3-0.3,1.9-0.8l0.9,0.8c-0.6,0.8-1.5,1.3-2.8,1.3C85.4,278.6,83.9,277.1,83.9,275z M89,274.5c-0.1-1-0.7-1.8-1.7-1.8
				c-1,0-1.6,0.7-1.8,1.8H89z" />
        <path d="M92.5,272.9h-0.9v-1.3h0.9v-0.5c0-0.8,0.2-1.3,0.6-1.7c0.4-0.4,0.9-0.5,1.5-0.5c0.6,0,0.9,0.1,1.3,0.2v1.3
				c-0.3-0.1-0.6-0.2-0.9-0.2c-0.6,0-0.9,0.3-0.9,1v0.4h1.8v1.3h-1.8v5.5h-1.6V272.9z" />
        <path d="M96.4,276.4L96.4,276.4c0-1.5,1.2-2.2,2.8-2.2c0.8,0,1.3,0.1,1.8,0.3v-0.2c0-1-0.6-1.5-1.7-1.5c-0.8,0-1.3,0.2-2,0.4
				L97,272c0.8-0.3,1.5-0.6,2.6-0.6c1,0,1.8,0.3,2.3,0.8c0.5,0.5,0.7,1.2,0.7,2.1v4.1H101v-0.9c-0.5,0.6-1.2,1-2.2,1
				C97.5,278.5,96.4,277.8,96.4,276.4z M101.1,275.9v-0.5c-0.4-0.2-0.9-0.3-1.6-0.3c-1,0-1.6,0.4-1.6,1.1v0c0,0.7,0.6,1,1.3,1
				C100.3,277.4,101.1,276.8,101.1,275.9z" />
        <path d="M104.4,275.9v-4.4h1.6v3.9c0,1.1,0.5,1.7,1.5,1.7c0.9,0,1.5-0.6,1.5-1.7v-3.9h1.6v6.9H109v-1.1c-0.4,0.7-1.1,1.2-2.1,1.2
				C105.3,278.5,104.4,277.5,104.4,275.9z" />
        <path d="M112.6,268.9h1.6v9.5h-1.6V268.9z" />
        <path d="M116.6,276.5v-3.6h-0.9v-1.4h0.9v-1.9h1.6v1.9h1.8v1.4h-1.8v3.4c0,0.6,0.3,0.9,0.8,0.9c0.4,0,0.7-0.1,1-0.2v1.3
				c-0.4,0.2-0.8,0.4-1.4,0.4C117.4,278.5,116.6,278,116.6,276.5z" />
        <path d="M124.9,277.5l0.7-1.1c0.8,0.6,1.5,0.8,2.2,0.8c0.7,0,1.1-0.3,1.1-0.7v0c0-0.5-0.7-0.7-1.5-1c-1-0.3-2.1-0.7-2.1-2v0
				c0-1.3,1.1-2.1,2.4-2.1c0.9,0,1.8,0.3,2.5,0.8l-0.6,1.1c-0.7-0.4-1.4-0.7-1.9-0.7c-0.6,0-1,0.3-1,0.7v0c0,0.5,0.7,0.7,1.5,1
				c1,0.3,2.1,0.8,2.1,2v0c0,1.4-1.1,2.2-2.5,2.2C126.9,278.5,125.8,278.2,124.9,277.5z" />
        <path d="M132.2,276.5v-3.6h-0.9v-1.4h0.9v-1.9h1.6v1.9h1.8v1.4h-1.8v3.4c0,0.6,0.3,0.9,0.8,0.9c0.4,0,0.7-0.1,1-0.2v1.3
				c-0.4,0.2-0.8,0.4-1.4,0.4C133,278.5,132.2,278,132.2,276.5z" />
        <path d="M136.7,276.4L136.7,276.4c0-1.5,1.2-2.2,2.8-2.2c0.8,0,1.3,0.1,1.8,0.3v-0.2c0-1-0.6-1.5-1.7-1.5c-0.8,0-1.3,0.2-2,0.4
				l-0.4-1.2c0.8-0.3,1.5-0.6,2.6-0.6c1,0,1.8,0.3,2.3,0.8c0.5,0.5,0.7,1.2,0.7,2.1v4.1h-1.5v-0.9c-0.5,0.6-1.2,1-2.2,1
				C137.9,278.5,136.7,277.8,136.7,276.4z M141.5,275.9v-0.5c-0.4-0.2-0.9-0.3-1.6-0.3c-1,0-1.6,0.4-1.6,1.1v0c0,0.7,0.6,1,1.3,1
				C140.7,277.4,141.5,276.8,141.5,275.9z" />
        <path d="M145.1,276.5v-3.6h-0.9v-1.4h0.9v-1.9h1.6v1.9h1.8v1.4h-1.8v3.4c0,0.6,0.3,0.9,0.8,0.9c0.4,0,0.7-0.1,1-0.2v1.3
				c-0.4,0.2-0.8,0.4-1.4,0.4C145.9,278.5,145.1,278,145.1,276.5z" />
        <path d="M150,275.9v-4.4h1.6v3.9c0,1.1,0.5,1.7,1.5,1.7c0.9,0,1.5-0.6,1.5-1.7v-3.9h1.6v6.9h-1.6v-1.1c-0.4,0.7-1.1,1.2-2.1,1.2
				C150.9,278.5,150,277.5,150,275.9z" />
        <path d="M157.6,277.5l0.7-1.1c0.8,0.6,1.5,0.8,2.2,0.8c0.7,0,1.1-0.3,1.1-0.7v0c0-0.5-0.7-0.7-1.5-1c-1-0.3-2.1-0.7-2.1-2v0
				c0-1.3,1.1-2.1,2.4-2.1c0.9,0,1.8,0.3,2.5,0.8l-0.6,1.1c-0.7-0.4-1.4-0.7-1.9-0.7c-0.6,0-1,0.3-1,0.7v0c0,0.5,0.7,0.7,1.5,1
				c1,0.3,2.1,0.8,2.1,2v0c0,1.4-1.1,2.2-2.5,2.2C159.5,278.5,158.5,278.2,157.6,277.5z" />
      </g>
      <g class="st14">
        <path class="st15" d="M267.1,221.3h1.8l3.9,9.2h-2.1l-0.8-2h-3.8l-0.8,2h-2L267.1,221.3z M269.2,226.7l-1.2-3l-1.2,3H269.2z" />
        <path class="st15" d="M273.4,227.1L273.4,227.1c0-2,1.5-3.7,3.7-3.7c1.3,0,2.1,0.4,2.8,1.2l-1.2,1.3c-0.4-0.5-0.9-0.8-1.6-0.8
				c-1,0-1.7,0.9-1.7,1.9v0c0,1.1,0.7,1.9,1.8,1.9c0.7,0,1.1-0.3,1.6-0.7l1.2,1.2c-0.7,0.7-1.5,1.3-2.8,1.3
				C274.9,230.7,273.4,229.1,273.4,227.1z" />
        <path class="st15" d="M280.6,227.1L280.6,227.1c0-2,1.5-3.7,3.7-3.7c1.3,0,2.1,0.4,2.8,1.2l-1.2,1.3c-0.4-0.5-0.9-0.8-1.6-0.8
				c-1,0-1.7,0.9-1.7,1.9v0c0,1.1,0.7,1.9,1.8,1.9c0.7,0,1.1-0.3,1.6-0.7l1.2,1.2c-0.7,0.7-1.5,1.3-2.8,1.3
				C282.1,230.7,280.6,229.1,280.6,227.1z" />
        <path class="st15" d="M287.8,227.1L287.8,227.1c0-2,1.4-3.7,3.4-3.7c2.3,0,3.4,1.8,3.4,3.8c0,0.2,0,0.3,0,0.5h-4.8
				c0.2,0.9,0.8,1.4,1.7,1.4c0.7,0,1.1-0.2,1.7-0.7l1.1,1c-0.6,0.8-1.6,1.3-2.8,1.3C289.4,230.7,287.8,229.2,287.8,227.1z
				 M292.7,226.5c-0.1-0.9-0.6-1.5-1.5-1.5c-0.8,0-1.4,0.6-1.5,1.5H292.7z" />
        <path class="st15" d="M296.1,223.5h2v1c0.5-0.7,1.1-1.1,2.2-1.1c1.6,0,3.2,1.3,3.2,3.6v0c0,2.3-1.5,3.6-3.2,3.6
				c-1.1,0-1.7-0.5-2.2-1v3h-2V223.5z M301.5,227L301.5,227c0-1.2-0.8-2-1.7-2c-0.9,0-1.7,0.8-1.7,1.9v0c0,1.2,0.8,1.9,1.7,1.9
				C300.7,229,301.5,228.2,301.5,227z" />
        <path class="st15" d="M305.2,228.5v-3.3h-0.8v-1.7h0.8v-1.8h2v1.8h1.6v1.7h-1.6v3c0,0.5,0.2,0.7,0.6,0.7c0.4,0,0.7-0.1,1-0.2v1.6
				c-0.4,0.2-0.9,0.4-1.6,0.4C306,230.6,305.2,230.1,305.2,228.5z" />
        <path class="st15" d="M309.8,227.1L309.8,227.1c0-2,1.4-3.7,3.4-3.7c2.3,0,3.4,1.8,3.4,3.8c0,0.2,0,0.3,0,0.5h-4.8
				c0.2,0.9,0.8,1.4,1.7,1.4c0.7,0,1.1-0.2,1.7-0.7l1.1,1c-0.7,0.8-1.6,1.3-2.8,1.3C311.3,230.7,309.8,229.2,309.8,227.1z
				 M314.7,226.5c-0.1-0.9-0.6-1.5-1.5-1.5c-0.8,0-1.4,0.6-1.5,1.5H314.7z" />
        <path class="st15" d="M317.8,227L317.8,227c0-2.4,1.5-3.6,3.2-3.6c1.1,0,1.7,0.5,2.2,1V221h2v9.5h-2v-1c-0.5,0.7-1.1,1.1-2.2,1.1
				C319.3,230.6,317.8,229.4,317.8,227z M323.1,227L323.1,227c0-1.2-0.8-2-1.7-2s-1.7,0.8-1.7,1.9v0c0,1.2,0.8,1.9,1.7,1.9
				S323.1,228.2,323.1,227z" />
      </g>
      <g class="st14">
        <path class="st15" d="M263.6,241.6L263.6,241.6c0-2.6,2-4.7,4.7-4.7c1.7,0,2.7,0.6,3.6,1.4l-1.3,1.5c-0.7-0.6-1.4-1-2.3-1
				c-1.5,0-2.6,1.3-2.6,2.8v0c0,1.6,1.1,2.9,2.6,2.9c1,0,1.7-0.4,2.4-1.1l1.3,1.3c-0.9,1-2,1.6-3.7,1.6
				C265.6,246.3,263.6,244.2,263.6,241.6z" />
        <path class="st15" d="M273.3,243.7v-4.5h2v3.9c0,0.9,0.4,1.4,1.2,1.4s1.2-0.5,1.2-1.4v-3.9h2v7h-2v-1c-0.5,0.6-1,1.1-2,1.1
				C274.2,246.2,273.3,245.3,273.3,243.7z" />
        <path class="st15" d="M280.9,245.2l0.8-1.3c0.8,0.5,1.5,0.8,2.2,0.8c0.6,0,0.8-0.2,0.8-0.5v0c0-0.4-0.7-0.6-1.4-0.8
				c-1-0.3-2.1-0.7-2.1-2.1v0c0-1.4,1.1-2.2,2.5-2.2c0.9,0,1.8,0.3,2.6,0.8l-0.8,1.4c-0.7-0.4-1.4-0.6-1.9-0.6
				c-0.5,0-0.7,0.2-0.7,0.5v0c0,0.4,0.7,0.6,1.4,0.8c1,0.3,2.1,0.8,2.1,2.1v0c0,1.5-1.2,2.2-2.7,2.2
				C282.9,246.2,281.8,245.9,280.9,245.2z" />
        <path class="st15" d="M288.2,244.1v-3.3h-0.8v-1.7h0.8v-1.8h2v1.8h1.6v1.7h-1.6v3c0,0.5,0.2,0.7,0.6,0.7c0.4,0,0.7-0.1,1-0.2v1.6
				c-0.4,0.2-0.9,0.4-1.6,0.4C289,246.2,288.2,245.8,288.2,244.1z" />
        <path class="st15" d="M292.7,242.7L292.7,242.7c0-2,1.6-3.7,3.8-3.7c2.2,0,3.8,1.6,3.8,3.6v0c0,2-1.6,3.6-3.8,3.6
				C294.3,246.3,292.7,244.7,292.7,242.7z M298.3,242.7L298.3,242.7c0-1.1-0.7-2-1.8-2c-1.1,0-1.8,0.9-1.8,1.9v0
				c0,1,0.7,1.9,1.8,1.9C297.6,244.6,298.3,243.7,298.3,242.7z" />
        <path class="st15" d="M301.7,239.1h2v1c0.5-0.6,1.1-1.1,2.1-1.1c0.9,0,1.6,0.4,2,1.1c0.6-0.7,1.3-1.1,2.3-1.1
				c1.5,0,2.4,0.9,2.4,2.6v4.5h-2v-3.9c0-0.9-0.4-1.4-1.2-1.4s-1.2,0.5-1.2,1.4v3.9h-2v-3.9c0-0.9-0.4-1.4-1.2-1.4s-1.2,0.5-1.2,1.4
				v3.9h-2V239.1z" />
        <path class="st15" d="M313.7,242.7L313.7,242.7c0-2,1.4-3.7,3.4-3.7c2.3,0,3.4,1.8,3.4,3.8c0,0.2,0,0.3,0,0.5h-4.8
				c0.2,0.9,0.8,1.4,1.7,1.4c0.7,0,1.1-0.2,1.7-0.7l1.1,1c-0.7,0.8-1.6,1.3-2.8,1.3C315.2,246.3,313.7,244.8,313.7,242.7z
				 M318.6,242.1c-0.1-0.9-0.6-1.5-1.5-1.5c-0.8,0-1.4,0.6-1.5,1.5H318.6z" />
        <path class="st15" d="M322,239.1h2v1.4c0.4-1,1.1-1.6,2.2-1.5v2.1h-0.1c-1.3,0-2.1,0.8-2.1,2.5v2.6h-2V239.1z" />
      </g>
      <g class="st14">
        <path class="st16" d="M251.3,297.5L251.3,297.5c0-2.6,2-4.7,4.8-4.7c1.6,0,2.6,0.4,3.6,1.2l-1.3,1.5c-0.7-0.6-1.3-0.9-2.4-0.9
				c-1.5,0-2.6,1.3-2.6,2.8v0c0,1.7,1.1,2.9,2.8,2.9c0.7,0,1.4-0.2,1.9-0.5v-1.3h-2v-1.7h4v4c-0.9,0.8-2.2,1.4-3.9,1.4
				C253.3,302.2,251.3,300.2,251.3,297.5z" />
        <path class="st16" d="M261.4,298.6L261.4,298.6c0-2,1.6-3.7,3.8-3.7c2.2,0,3.8,1.6,3.8,3.6v0c0,2-1.6,3.6-3.8,3.6
				C263,302.2,261.4,300.6,261.4,298.6z M267,298.6L267,298.6c0-1.1-0.7-2-1.8-2c-1.1,0-1.8,0.9-1.8,1.9v0c0,1,0.7,1.9,1.8,1.9
				C266.3,300.5,267,299.6,267,298.6z" />
        <path class="st16" d="M270,298.6L270,298.6c0-2,1.6-3.7,3.8-3.7c2.2,0,3.8,1.6,3.8,3.6v0c0,2-1.6,3.6-3.8,3.6
				C271.6,302.2,270,300.6,270,298.6z M275.6,298.6L275.6,298.6c0-1.1-0.7-2-1.8-2c-1.1,0-1.8,0.9-1.8,1.9v0c0,1,0.7,1.9,1.8,1.9
				C274.9,300.5,275.6,299.6,275.6,298.6z" />
        <path class="st16" d="M278.7,298.5L278.7,298.5c0-2.4,1.5-3.6,3.2-3.6c1.1,0,1.7,0.5,2.2,1v-3.4h2v9.5h-2v-1
				c-0.5,0.7-1.1,1.1-2.2,1.1C280.2,302.1,278.7,300.9,278.7,298.5z M284,298.5L284,298.5c0-1.2-0.8-2-1.7-2c-0.9,0-1.7,0.8-1.7,1.9
				v0c0,1.2,0.8,1.9,1.7,1.9C283.3,300.5,284,299.7,284,298.5z" />
      </g>
      <g class="st14">
        <path class="st16" d="M335.8,292.9h4.2c1,0,1.9,0.3,2.4,0.8c0.4,0.4,0.6,0.9,0.6,1.5v0c0,1-0.5,1.6-1.2,2c1.1,0.4,1.7,1,1.7,2.2
				v0c0,1.7-1.4,2.5-3.4,2.5h-4.3V292.9z M341.1,295.6c0-0.6-0.5-0.9-1.3-0.9h-2v1.9h1.8C340.5,296.6,341.1,296.3,341.1,295.6
				L341.1,295.6z M340.1,298.3h-2.3v2h2.4c0.9,0,1.4-0.3,1.4-1v0C341.6,298.6,341.1,298.3,340.1,298.3z" />
        <path class="st16" d="M344.6,300L344.6,300c0-1.5,1.2-2.2,2.8-2.2c0.7,0,1.2,0.1,1.7,0.3v-0.1c0-0.8-0.5-1.3-1.5-1.3
				c-0.8,0-1.3,0.1-1.9,0.4l-0.5-1.5c0.8-0.3,1.5-0.6,2.7-0.6c1.1,0,1.9,0.3,2.4,0.8c0.5,0.5,0.8,1.3,0.8,2.2v4h-1.9v-0.8
				c-0.5,0.5-1.1,0.9-2.1,0.9C345.7,302.1,344.6,301.4,344.6,300z M349.1,299.6v-0.4c-0.3-0.2-0.8-0.3-1.3-0.3c-0.8,0-1.4,0.3-1.4,1
				v0c0,0.5,0.4,0.8,1.1,0.8C348.5,300.8,349.1,300.3,349.1,299.6z" />
        <path class="st16" d="M352.4,298.5L352.4,298.5c0-2.4,1.5-3.6,3.2-3.6c1.1,0,1.7,0.5,2.2,1v-3.4h2v9.5h-2v-1
				c-0.5,0.7-1.1,1.1-2.2,1.1C353.9,302.1,352.4,300.9,352.4,298.5z M357.8,298.5L357.8,298.5c0-1.2-0.8-2-1.7-2s-1.7,0.8-1.7,1.9v0
				c0,1.2,0.8,1.9,1.7,1.9S357.8,299.7,357.8,298.5z" />
      </g>
      <g class="st14">
        <path class="st16" d="M499.2,183.3L499.2,183.3c2.1-0.2,2.9-0.7,2.9-1.5v0c0-0.7-0.5-1.1-1.5-1.1c-0.9,0-1.7,0.4-2.4,1.1
				l-1.5-1.6c0.9-1,2.2-1.7,3.9-1.7c2.3,0,3.9,1.2,3.9,3.3v0c0,2-1.4,2.9-3.2,3.2l-0.2,1h-1.6L499.2,183.3z M499,187.1h2.6v2.6H499
				V187.1z" />
      </g>
      <g class="st14">
        <path class="st16" d="M579.5,183.3L579.5,183.3c2.1-0.2,2.9-0.7,2.9-1.5v0c0-0.7-0.5-1.1-1.5-1.1c-0.9,0-1.7,0.4-2.4,1.1
				l-1.5-1.6c0.9-1,2.2-1.7,3.9-1.7c2.3,0,3.9,1.2,3.9,3.3v0c0,2-1.4,2.9-3.2,3.2l-0.2,1h-1.6L579.5,183.3z M579.4,187.1h2.6v2.6
				h-2.6V187.1z" />
      </g>
      <g class="st14">
        <path d="M651.6,47.7h5.1c1.4,0,2.5,0.4,3.3,1.1c0.6,0.6,1,1.5,1,2.6v0c0,1.8-1,2.9-2.4,3.5l2.7,4h-2.9l-2.4-3.6H654v3.6h-2.5
				V47.7z M656.5,53.1c1.2,0,1.9-0.6,1.9-1.6v0c0-1.1-0.7-1.6-1.9-1.6H654v3.2H656.5z" />
        <path d="M662.3,54.6L662.3,54.6c0-2.5,1.7-4.5,4.2-4.5c2.9,0,4.2,2.2,4.2,4.7c0,0.2,0,0.4,0,0.6h-6c0.2,1.1,1,1.7,2.1,1.7
				c0.8,0,1.4-0.3,2.1-0.9l1.4,1.2c-0.8,1-2,1.6-3.5,1.6C664.2,59.1,662.3,57.3,662.3,54.6z M668.4,53.9c-0.1-1.1-0.8-1.8-1.8-1.8
				c-1,0-1.7,0.7-1.9,1.8H668.4z" />
        <path d="M671.3,61.4v-1.9c0.2,0,0.3,0,0.5,0c0.5,0,0.9-0.3,0.9-1v-8.2h2.4v8.4c0,1.9-1,2.8-2.8,2.8
				C671.9,61.5,671.6,61.5,671.3,61.4z M672.6,47.2h2.6v2.2h-2.6V47.2z" />
        <path d="M676.9,54.6L676.9,54.6c0-2.5,1.7-4.5,4.2-4.5c2.9,0,4.2,2.2,4.2,4.7c0,0.2,0,0.4,0,0.6h-6c0.2,1.1,1,1.7,2.1,1.7
				c0.8,0,1.4-0.3,2.1-0.9l1.4,1.2c-0.8,1-2,1.6-3.5,1.6C678.9,59.1,676.9,57.3,676.9,54.6z M683,53.9c-0.1-1.1-0.8-1.8-1.8-1.8
				c-1,0-1.7,0.7-1.9,1.8H683z" />
        <path d="M686.8,54.6L686.8,54.6c0-2.5,1.9-4.5,4.5-4.5c1.6,0,2.6,0.5,3.4,1.4l-1.5,1.6c-0.5-0.6-1.1-0.9-2-0.9
				c-1.2,0-2.1,1.1-2.1,2.3v0c0,1.3,0.8,2.4,2.2,2.4c0.8,0,1.4-0.4,2-0.9l1.4,1.4c-0.8,0.9-1.8,1.6-3.5,1.6
				C688.6,59.1,686.8,57.1,686.8,54.6z" />
        <path d="M696.7,56.4v-4.1h-1v-2.1h1v-2.2h2.4v2.2h2v2.1h-2V56c0,0.6,0.2,0.8,0.8,0.8c0.4,0,0.8-0.1,1.2-0.3v2
				c-0.5,0.3-1.1,0.5-1.9,0.5C697.7,59,696.7,58.4,696.7,56.4z" />
        <path d="M708.1,47.7h2.5v11.2h-2.5V47.7z" />
        <path d="M713.1,50.3h2.4v1.2c0.6-0.7,1.3-1.4,2.5-1.4c1.8,0,2.9,1.2,2.9,3.2v5.6h-2.4v-4.8c0-1.2-0.5-1.7-1.5-1.7
				c-0.9,0-1.5,0.6-1.5,1.7v4.8h-2.4V50.3z" />
        <path d="M723.5,52.4h-1v-2h1v-0.5c0-0.9,0.2-1.6,0.7-2.1c0.4-0.4,1.1-0.7,2-0.7c0.8,0,1.3,0.1,1.7,0.2v2
				c-0.4-0.1-0.7-0.2-1.1-0.2c-0.6,0-0.9,0.3-0.9,0.9v0.3h2v2h-1.9v6.5h-2.4V52.4z" />
        <path d="M728.6,54.6L728.6,54.6c0-2.5,1.7-4.5,4.2-4.5c2.9,0,4.2,2.2,4.2,4.7c0,0.2,0,0.4,0,0.6h-6c0.2,1.1,1,1.7,2.1,1.7
				c0.8,0,1.4-0.3,2.1-0.9l1.4,1.2c-0.8,1-2,1.6-3.5,1.6C730.5,59.1,728.6,57.3,728.6,54.6z M734.7,53.9c-0.1-1.1-0.8-1.8-1.8-1.8
				c-1,0-1.7,0.7-1.9,1.8H734.7z" />
        <path d="M738.9,50.3h2.4V52c0.5-1.2,1.3-2,2.7-1.9v2.5h-0.1c-1.6,0-2.6,1-2.6,3v3.2h-2.4V50.3z" />
        <path d="M744.9,54.6L744.9,54.6c0-2.5,1.7-4.5,4.2-4.5c2.9,0,4.2,2.2,4.2,4.7c0,0.2,0,0.4,0,0.6h-6c0.2,1.1,1,1.7,2.1,1.7
				c0.8,0,1.4-0.3,2.1-0.9l1.4,1.2c-0.8,1-2,1.6-3.5,1.6C746.8,59.1,744.9,57.3,744.9,54.6z M750.9,53.9c-0.1-1.1-0.8-1.8-1.8-1.8
				c-1,0-1.7,0.7-1.9,1.8H750.9z" />
        <path d="M755.1,50.3h2.4v1.2c0.6-0.7,1.3-1.4,2.5-1.4c1.8,0,2.9,1.2,2.9,3.2v5.6h-2.4v-4.8c0-1.2-0.5-1.7-1.5-1.7
				c-0.9,0-1.5,0.6-1.5,1.7v4.8h-2.4V50.3z" />
        <path d="M764.7,54.6L764.7,54.6c0-2.5,1.9-4.5,4.5-4.5c1.6,0,2.6,0.5,3.4,1.4l-1.5,1.6c-0.5-0.6-1.1-0.9-2-0.9
				c-1.2,0-2.1,1.1-2.1,2.3v0c0,1.3,0.8,2.4,2.2,2.4c0.8,0,1.4-0.4,2-0.9l1.4,1.4c-0.8,0.9-1.8,1.6-3.5,1.6
				C766.5,59.1,764.7,57.1,764.7,54.6z" />
        <path d="M773.6,54.6L773.6,54.6c0-2.5,1.7-4.5,4.2-4.5c2.9,0,4.2,2.2,4.2,4.7c0,0.2,0,0.4,0,0.6h-6c0.2,1.1,1,1.7,2.1,1.7
				c0.8,0,1.4-0.3,2.1-0.9l1.4,1.2c-0.8,1-2,1.6-3.5,1.6C775.5,59.1,773.6,57.3,773.6,54.6z M779.6,53.9c-0.1-1.1-0.8-1.8-1.8-1.8
				c-1,0-1.7,0.7-1.9,1.8H779.6z" />
      </g>
      <g class="st14">
        <path d="M651.4,72.3h6.7v1.4H653v2.4h4.6v1.4H653V80h5.2v1.4h-6.8V72.3z" />
        <path d="M659.9,74.5h1.6v1.1c0.4-0.6,1.1-1.2,2.1-1.2c1.5,0,2.4,1,2.4,2.6v4.4h-1.6v-3.9c0-1.1-0.5-1.7-1.5-1.7
				c-0.9,0-1.5,0.6-1.5,1.7v3.9h-1.6V74.5z" />
        <path d="M667.5,79.4L667.5,79.4c0-1.5,1.2-2.2,2.8-2.2c0.8,0,1.3,0.1,1.8,0.3v-0.2c0-1-0.6-1.5-1.7-1.5c-0.8,0-1.3,0.2-2,0.4
				l-0.4-1.2c0.8-0.3,1.5-0.6,2.6-0.6c1,0,1.8,0.3,2.3,0.8c0.5,0.5,0.7,1.2,0.7,2.1v4.1h-1.5v-0.9c-0.5,0.6-1.2,1-2.2,1
				C668.7,81.5,667.5,80.8,667.5,79.4z M672.2,78.9v-0.5c-0.4-0.2-0.9-0.3-1.6-0.3c-1,0-1.6,0.4-1.6,1.1v0c0,0.7,0.6,1,1.3,1
				C671.4,80.4,672.2,79.8,672.2,78.9z" />
        <path d="M677.2,80.3v1.1h-1.6v-9.5h1.6v3.8c0.5-0.7,1.2-1.3,2.3-1.3c1.6,0,3.2,1.3,3.2,3.6v0c0,2.3-1.6,3.6-3.2,3.6
				C678.4,81.5,677.7,81,677.2,80.3z M681.1,78L681.1,78c0-1.4-0.9-2.2-2-2.2c-1.1,0-2,0.9-2,2.2v0c0,1.3,0.9,2.2,2,2.2
				C680.2,80.2,681.1,79.3,681.1,78z" />
        <path d="M684.4,71.9h1.6v9.5h-1.6V71.9z" />
        <path d="M687.7,78L687.7,78c0-2,1.4-3.6,3.4-3.6c2.2,0,3.3,1.7,3.3,3.7c0,0.1,0,0.3,0,0.4h-5c0.2,1.1,1,1.7,2,1.7
				c0.8,0,1.3-0.3,1.9-0.8l0.9,0.8c-0.7,0.8-1.5,1.3-2.8,1.3C689.2,81.6,687.7,80.1,687.7,78z M692.8,77.5c-0.1-1-0.7-1.8-1.7-1.8
				c-1,0-1.6,0.7-1.8,1.8H692.8z" />
        <path d="M695.4,80.5l0.7-1.1c0.8,0.6,1.5,0.8,2.2,0.8c0.7,0,1.1-0.3,1.1-0.7v0c0-0.5-0.7-0.7-1.5-1c-1-0.3-2.1-0.7-2.1-2v0
				c0-1.3,1.1-2.1,2.4-2.1c0.9,0,1.8,0.3,2.5,0.8l-0.6,1.1c-0.7-0.4-1.4-0.7-1.9-0.7c-0.6,0-1,0.3-1,0.7v0c0,0.5,0.7,0.7,1.5,1
				c1,0.3,2.1,0.8,2.1,2v0c0,1.4-1.1,2.2-2.5,2.2C697.3,81.5,696.2,81.2,695.4,80.5z" />
        <path d="M707.9,80.3v1.1h-1.6v-9.5h1.6v3.8c0.5-0.7,1.2-1.3,2.3-1.3c1.6,0,3.2,1.3,3.2,3.6v0c0,2.3-1.6,3.6-3.2,3.6
				C709.1,81.5,708.4,81,707.9,80.3z M711.8,78L711.8,78c0-1.4-0.9-2.2-2-2.2c-1.1,0-2,0.9-2,2.2v0c0,1.3,0.9,2.2,2,2.2
				C710.9,80.2,711.8,79.3,711.8,78z" />
        <path d="M715,78.9v-4.4h1.6v3.9c0,1.1,0.5,1.7,1.5,1.7c0.9,0,1.5-0.6,1.5-1.7v-3.9h1.6v6.9h-1.6v-1.1c-0.4,0.7-1.1,1.2-2.1,1.2
				C715.9,81.5,715,80.5,715,78.9z" />
        <path d="M723.1,72h1.7v1.5h-1.7V72z M723.2,74.5h1.6v6.9h-1.6V74.5z" />
        <path d="M726.9,71.9h1.6v9.5h-1.6V71.9z" />
        <path d="M730.2,78L730.2,78c0-2.3,1.5-3.6,3.2-3.6c1.1,0,1.8,0.6,2.3,1.2v-3.7h1.6v9.5h-1.6v-1.1c-0.5,0.7-1.2,1.3-2.3,1.3
				C731.8,81.5,730.2,80.3,730.2,78z M735.7,78L735.7,78c0-1.4-0.9-2.2-2-2.2c-1.1,0-2,0.8-2,2.2v0c0,1.3,0.9,2.2,2,2.2
				C734.8,80.2,735.7,79.3,735.7,78z" />
        <path d="M739.3,72h1.7v1.5h-1.7V72z M739.3,74.5h1.6v6.9h-1.6V74.5z" />
        <path d="M743,74.5h1.6v1.1c0.4-0.6,1.1-1.2,2.1-1.2c1.5,0,2.4,1,2.4,2.6v4.4h-1.6v-3.9c0-1.1-0.5-1.7-1.5-1.7
				c-0.9,0-1.5,0.6-1.5,1.7v3.9H743V74.5z" />
        <path d="M751,82.7l0.6-1.2c0.7,0.5,1.5,0.7,2.4,0.7c1.4,0,2.2-0.7,2.2-2.1v-0.5c-0.6,0.7-1.3,1.2-2.4,1.2c-1.6,0-3.1-1.2-3.1-3.2
				v0c0-2,1.5-3.2,3.1-3.2c1.2,0,1.9,0.5,2.4,1.2v-1h1.6V80c0,1.2-0.3,2-0.9,2.6c-0.6,0.6-1.6,0.9-2.8,0.9
				C753,83.5,751.9,83.2,751,82.7z M756.2,77.6L756.2,77.6c0-1.1-0.9-1.9-2-1.9s-2,0.7-2,1.9v0c0,1.1,0.9,1.9,2,1.9
				C755.3,79.5,756.2,78.7,756.2,77.6z" />
        <path d="M763.2,79.4L763.2,79.4c0-1.5,1.2-2.2,2.8-2.2c0.8,0,1.3,0.1,1.8,0.3v-0.2c0-1-0.6-1.5-1.7-1.5c-0.8,0-1.3,0.2-2,0.4
				l-0.4-1.2c0.8-0.3,1.5-0.6,2.6-0.6c1,0,1.8,0.3,2.3,0.8c0.5,0.5,0.7,1.2,0.7,2.1v4.1h-1.5v-0.9c-0.5,0.6-1.2,1-2.2,1
				C764.4,81.5,763.2,80.8,763.2,79.4z M767.9,78.9v-0.5c-0.4-0.2-0.9-0.3-1.6-0.3c-1,0-1.6,0.4-1.6,1.1v0c0,0.7,0.6,1,1.3,1
				C767.1,80.4,767.9,79.8,767.9,78.9z" />
      </g>
      <g class="st14">
        <path d="M651.2,90.1h1.6v1c0.4-0.6,1-1.2,2.1-1.2c1,0,1.7,0.5,2.1,1.2c0.5-0.7,1.3-1.2,2.3-1.2c1.5,0,2.4,0.9,2.4,2.6V97h-1.6
				v-3.9c0-1.1-0.5-1.7-1.4-1.7c-0.9,0-1.5,0.6-1.5,1.7V97h-1.6v-3.9c0-1.1-0.5-1.7-1.4-1.7s-1.5,0.7-1.5,1.7V97h-1.6V90.1z" />
        <path d="M663.2,93.6L663.2,93.6c0-2,1.6-3.6,3.7-3.6s3.7,1.6,3.7,3.6v0c0,2-1.6,3.6-3.7,3.6C664.7,97.2,663.2,95.6,663.2,93.6z
				 M668.9,93.6L668.9,93.6c0-1.2-0.9-2.2-2.1-2.2c-1.3,0-2.1,1-2.1,2.2v0c0,1.2,0.9,2.2,2.1,2.2C668.1,95.8,668.9,94.8,668.9,93.6z
				" />
        <path d="M672.1,90.1h1.6v1.5c0.4-1,1.2-1.7,2.4-1.7v1.7H676c-1.4,0-2.3,0.9-2.3,2.7V97h-1.6V90.1z" />
        <path d="M676.9,93.6L676.9,93.6c0-2,1.4-3.6,3.4-3.6c2.2,0,3.3,1.7,3.3,3.7c0,0.1,0,0.3,0,0.4h-5c0.2,1.1,1,1.7,2,1.7
				c0.8,0,1.3-0.3,1.9-0.8l0.9,0.8c-0.7,0.8-1.5,1.3-2.8,1.3C678.4,97.2,676.9,95.7,676.9,93.6z M681.9,93.1c-0.1-1-0.7-1.8-1.7-1.8
				c-1,0-1.6,0.7-1.8,1.8H681.9z" />
        <path d="M689,90.1h1.6v1.5c0.4-1,1.2-1.7,2.4-1.7v1.7h-0.1c-1.4,0-2.3,0.9-2.3,2.7V97H689V90.1z" />
        <path d="M693.7,93.6L693.7,93.6c0-2,1.6-3.6,3.7-3.6s3.7,1.6,3.7,3.6v0c0,2-1.6,3.6-3.7,3.6C695.3,97.2,693.7,95.6,693.7,93.6z
				 M699.5,93.6L699.5,93.6c0-1.2-0.9-2.2-2.1-2.2c-1.3,0-2.1,1-2.1,2.2v0c0,1.2,0.9,2.2,2.1,2.2C698.7,95.8,699.5,94.8,699.5,93.6z
				" />
        <path d="M704.2,95.9V97h-1.6v-9.5h1.6v3.8c0.5-0.7,1.2-1.3,2.3-1.3c1.6,0,3.2,1.3,3.2,3.6v0c0,2.3-1.6,3.6-3.2,3.6
				C705.4,97.1,704.7,96.6,704.2,95.9z M708.2,93.6L708.2,93.6c0-1.4-0.9-2.2-2-2.2c-1.1,0-2,0.9-2,2.2v0c0,1.3,0.9,2.2,2,2.2
				C707.3,95.8,708.2,94.9,708.2,93.6z" />
        <path d="M711.3,94.5v-4.4h1.6V94c0,1.1,0.5,1.7,1.5,1.7c0.9,0,1.5-0.6,1.5-1.7v-3.9h1.6V97h-1.6v-1.1c-0.4,0.7-1.1,1.2-2.1,1.2
				C712.2,97.1,711.3,96.1,711.3,94.5z" />
        <path d="M718.9,96.1l0.7-1.1c0.8,0.6,1.5,0.8,2.2,0.8c0.7,0,1.1-0.3,1.1-0.7v0c0-0.5-0.7-0.7-1.5-1c-1-0.3-2.1-0.7-2.1-2v0
				c0-1.3,1.1-2.1,2.4-2.1c0.9,0,1.8,0.3,2.5,0.8l-0.6,1.1c-0.7-0.4-1.4-0.7-1.9-0.7c-0.6,0-1,0.3-1,0.7v0c0,0.5,0.7,0.7,1.5,1
				c1,0.3,2.1,0.8,2.1,2v0c0,1.4-1.1,2.2-2.5,2.2C720.8,97.1,719.7,96.8,718.9,96.1z" />
        <path d="M726.1,95.1v-3.6h-0.9v-1.4h0.9v-1.9h1.6v1.9h1.8v1.4h-1.8v3.4c0,0.6,0.3,0.9,0.8,0.9c0.4,0,0.7-0.1,1-0.2v1.3
				c-0.4,0.2-0.8,0.4-1.4,0.4C727,97.1,726.1,96.6,726.1,95.1z" />
        <path d="M734.6,95.7l1-1.1c0.9,0.8,1.8,1.2,2.9,1.2c1,0,1.6-0.5,1.6-1.1v0c0-0.7-0.4-1-2.1-1.4c-1.9-0.5-3-1-3-2.7v0
				c0-1.6,1.3-2.6,3.1-2.6c1.3,0,2.4,0.4,3.3,1.1l-0.9,1.2c-0.8-0.6-1.6-0.9-2.5-0.9c-0.9,0-1.5,0.5-1.5,1.1v0c0,0.7,0.4,1,2.2,1.4
				c1.9,0.5,2.9,1.2,2.9,2.7v0c0,1.7-1.3,2.7-3.3,2.7C737,97.1,735.7,96.6,734.6,95.7z" />
        <path d="M743.2,92.5L743.2,92.5c0-2.6,1.9-4.7,4.7-4.7c1.7,0,2.7,0.6,3.6,1.4l-1,1.2c-0.7-0.7-1.5-1.1-2.6-1.1
				c-1.7,0-3,1.4-3,3.2v0c0,1.8,1.3,3.2,3,3.2c1.1,0,1.8-0.4,2.6-1.2l1,1c-0.9,1-2,1.6-3.7,1.6C745.1,97.2,743.2,95.1,743.2,92.5z" />
        <path d="M756.9,90.1h1.6v1c0.4-0.6,1-1.2,2.1-1.2c1,0,1.7,0.5,2.1,1.2c0.5-0.7,1.3-1.2,2.3-1.2c1.5,0,2.4,0.9,2.4,2.6V97h-1.6
				v-3.9c0-1.1-0.5-1.7-1.4-1.7c-0.9,0-1.5,0.6-1.5,1.7V97h-1.6v-3.9c0-1.1-0.5-1.7-1.4-1.7s-1.5,0.7-1.5,1.7V97h-1.6V90.1z" />
        <path d="M768.9,93.6L768.9,93.6c0-2,1.6-3.6,3.7-3.6s3.7,1.6,3.7,3.6v0c0,2-1.6,3.6-3.7,3.6C770.4,97.2,768.9,95.6,768.9,93.6z
				 M774.6,93.6L774.6,93.6c0-1.2-0.9-2.2-2.1-2.2c-1.3,0-2.1,1-2.1,2.2v0c0,1.2,0.9,2.2,2.1,2.2C773.8,95.8,774.6,94.8,774.6,93.6z
				" />
        <path d="M777.4,93.6L777.4,93.6c0-2.3,1.5-3.6,3.2-3.6c1.1,0,1.8,0.6,2.3,1.2v-3.7h1.6V97h-1.6v-1.1c-0.5,0.7-1.2,1.3-2.3,1.3
				C779,97.1,777.4,95.9,777.4,93.6z M783,93.6L783,93.6c0-1.4-0.9-2.2-2-2.2c-1.1,0-2,0.8-2,2.2v0c0,1.3,0.9,2.2,2,2.2
				C782,95.8,783,94.9,783,93.6z" />
        <path d="M786.1,93.6L786.1,93.6c0-2,1.4-3.6,3.4-3.6c2.2,0,3.3,1.7,3.3,3.7c0,0.1,0,0.3,0,0.4h-5c0.2,1.1,1,1.7,2,1.7
				c0.8,0,1.3-0.3,1.9-0.8l0.9,0.8c-0.7,0.8-1.5,1.3-2.8,1.3C787.7,97.2,786.1,95.7,786.1,93.6z M791.2,93.1c-0.1-1-0.7-1.8-1.7-1.8
				c-1,0-1.6,0.7-1.8,1.8H791.2z" />
        <path d="M794.4,87.5h1.6V97h-1.6V87.5z" />
      </g>
      <g class="st14">
        <path d="M652.8,111.5v1.1h-1.6v-9.5h1.6v3.8c0.5-0.7,1.2-1.3,2.3-1.3c1.6,0,3.2,1.3,3.2,3.6v0c0,2.3-1.6,3.6-3.2,3.6
				C654,112.7,653.3,112.2,652.8,111.5z M656.7,109.2L656.7,109.2c0-1.4-0.9-2.2-2-2.2c-1.1,0-2,0.9-2,2.2v0c0,1.3,0.9,2.2,2,2.2
				C655.8,111.4,656.7,110.5,656.7,109.2z" />
        <path d="M664.4,105.7h1.6l-2.7,7c-0.5,1.4-1.2,1.9-2.3,1.9c-0.6,0-1.1-0.2-1.6-0.4l0.5-1.2c0.3,0.2,0.6,0.3,0.9,0.3
				c0.4,0,0.7-0.2,1-0.8l-2.9-6.9h1.7l1.9,5.1L664.4,105.7z" />
        <path d="M671.2,105.7h1.6v1c0.4-0.6,1-1.2,2.1-1.2c1,0,1.7,0.5,2.1,1.2c0.5-0.7,1.3-1.2,2.3-1.2c1.5,0,2.4,0.9,2.4,2.6v4.4h-1.6
				v-3.9c0-1.1-0.5-1.7-1.4-1.7c-0.9,0-1.5,0.6-1.5,1.7v3.9h-1.6v-3.9c0-1.1-0.5-1.7-1.4-1.7s-1.5,0.7-1.5,1.7v3.9h-1.6V105.7z" />
        <path d="M683.2,109.2L683.2,109.2c0-2,1.6-3.6,3.7-3.6s3.7,1.6,3.7,3.6v0c0,2-1.6,3.6-3.7,3.6
				C684.8,112.8,683.2,111.2,683.2,109.2z M689,109.2L689,109.2c0-1.2-0.9-2.2-2.1-2.2c-1.3,0-2.1,1-2.1,2.2v0
				c0,1.2,0.9,2.2,2.1,2.2C688.2,111.4,689,110.4,689,109.2z" />
        <path d="M691.8,109.2L691.8,109.2c0-2.3,1.5-3.6,3.2-3.6c1.1,0,1.8,0.6,2.3,1.2v-3.7h1.6v9.5h-1.6v-1.1c-0.5,0.7-1.2,1.3-2.3,1.3
				C693.4,112.7,691.8,111.5,691.8,109.2z M697.3,109.2L697.3,109.2c0-1.4-0.9-2.2-2-2.2c-1.1,0-2,0.8-2,2.2v0c0,1.3,0.9,2.2,2,2.2
				C696.4,111.4,697.3,110.5,697.3,109.2z" />
        <path d="M700.5,109.2L700.5,109.2c0-2,1.4-3.6,3.4-3.6c2.2,0,3.3,1.7,3.3,3.7c0,0.1,0,0.3,0,0.4h-5c0.2,1.1,1,1.7,2,1.7
				c0.8,0,1.3-0.3,1.9-0.8l0.9,0.8c-0.7,0.8-1.5,1.3-2.8,1.3C702,112.8,700.5,111.3,700.5,109.2z M705.6,108.7
				c-0.1-1-0.7-1.8-1.7-1.8c-1,0-1.6,0.7-1.8,1.8H705.6z" />
        <path d="M708.8,103.1h1.6v9.5h-1.6V103.1z" />
        <path d="M712.5,103.2h1.7v1.5h-1.7V103.2z M712.5,105.7h1.6v6.9h-1.6V105.7z" />
        <path d="M716.1,105.7h1.6v1.1c0.4-0.6,1.1-1.2,2.1-1.2c1.5,0,2.4,1,2.4,2.6v4.4h-1.6v-3.9c0-1.1-0.5-1.7-1.5-1.7
				c-0.9,0-1.5,0.6-1.5,1.7v3.9h-1.6V105.7z" />
        <path d="M724.2,113.9l0.6-1.2c0.7,0.5,1.5,0.7,2.4,0.7c1.4,0,2.2-0.7,2.2-2.1v-0.5c-0.6,0.7-1.3,1.2-2.4,1.2
				c-1.6,0-3.1-1.2-3.1-3.2v0c0-2,1.5-3.2,3.1-3.2c1.2,0,1.9,0.5,2.4,1.2v-1h1.6v5.5c0,1.2-0.3,2-0.9,2.6c-0.6,0.6-1.6,0.9-2.8,0.9
				C726.1,114.7,725.1,114.4,724.2,113.9z M729.4,108.8L729.4,108.8c0-1.1-0.9-1.9-2-1.9c-1.1,0-2,0.7-2,1.9v0c0,1.1,0.9,1.9,2,1.9
				C728.5,110.7,729.4,109.9,729.4,108.8z" />
        <path d="M737.2,110.7v-3.6h-0.9v-1.4h0.9v-1.9h1.6v1.9h1.8v1.4h-1.8v3.4c0,0.6,0.3,0.9,0.8,0.9c0.4,0,0.7-0.1,1-0.2v1.3
				c-0.4,0.2-0.8,0.4-1.4,0.4C738,112.7,737.2,112.2,737.2,110.7z" />
        <path d="M742.2,103.1h1.6v3.7c0.4-0.6,1.1-1.2,2.1-1.2c1.5,0,2.4,1,2.4,2.6v4.4h-1.6v-3.9c0-1.1-0.5-1.7-1.5-1.7
				c-0.9,0-1.5,0.6-1.5,1.7v3.9h-1.6V103.1z" />
        <path d="M749.9,109.2L749.9,109.2c0-2,1.4-3.6,3.4-3.6c2.2,0,3.3,1.7,3.3,3.7c0,0.1,0,0.3,0,0.4h-5c0.2,1.1,1,1.7,2,1.7
				c0.8,0,1.3-0.3,1.9-0.8l0.9,0.8c-0.7,0.8-1.5,1.3-2.8,1.3C751.4,112.8,749.9,111.3,749.9,109.2z M754.9,108.7
				c-0.1-1-0.7-1.8-1.7-1.8c-1,0-1.6,0.7-1.8,1.8H754.9z" />
      </g>
      <g class="st14">
        <path d="M651.2,121.3h1.6v1.1c0.5-0.7,1.2-1.3,2.3-1.3c1.6,0,3.2,1.3,3.2,3.6v0c0,2.3-1.6,3.6-3.2,3.6c-1.1,0-1.9-0.6-2.3-1.2
				v3.1h-1.6V121.3z M656.7,124.8L656.7,124.8c0-1.4-0.9-2.2-2-2.2c-1.1,0-2,0.9-2,2.2v0c0,1.3,0.9,2.2,2,2.2
				C655.8,127,656.7,126.1,656.7,124.8z" />
        <path d="M659.6,124.8L659.6,124.8c0-2,1.6-3.6,3.7-3.6s3.7,1.6,3.7,3.6v0c0,2-1.6,3.6-3.7,3.6
				C661.1,128.4,659.6,126.8,659.6,124.8z M665.3,124.8L665.3,124.8c0-1.2-0.9-2.2-2.1-2.2c-1.3,0-2.1,1-2.1,2.2v0
				c0,1.2,0.9,2.2,2.1,2.2C664.5,127,665.3,126,665.3,124.8z" />
        <path d="M668.5,121.3h1.6v1.1c0.5-0.7,1.2-1.3,2.3-1.3c1.6,0,3.2,1.3,3.2,3.6v0c0,2.3-1.6,3.6-3.2,3.6c-1.1,0-1.9-0.6-2.3-1.2
				v3.1h-1.6V121.3z M674,124.8L674,124.8c0-1.4-0.9-2.2-2-2.2c-1.1,0-2,0.9-2,2.2v0c0,1.3,0.9,2.2,2,2.2
				C673.1,127,674,126.1,674,124.8z" />
        <path d="M677.1,125.7v-4.4h1.6v3.9c0,1.1,0.5,1.7,1.5,1.7c0.9,0,1.5-0.6,1.5-1.7v-3.9h1.6v6.9h-1.6v-1.1
				c-0.4,0.7-1.1,1.2-2.1,1.2C678,128.3,677.1,127.3,677.1,125.7z" />
        <path d="M685.3,118.7h1.6v9.5h-1.6V118.7z" />
        <path d="M688.5,126.2L688.5,126.2c0-1.5,1.2-2.2,2.8-2.2c0.8,0,1.3,0.1,1.8,0.3v-0.2c0-1-0.6-1.5-1.7-1.5c-0.8,0-1.3,0.2-2,0.4
				l-0.4-1.2c0.8-0.3,1.5-0.6,2.6-0.6c1,0,1.8,0.3,2.3,0.8c0.5,0.5,0.7,1.2,0.7,2.1v4.1h-1.5v-0.9c-0.5,0.6-1.2,1-2.2,1
				C689.7,128.3,688.5,127.6,688.5,126.2z M693.2,125.7v-0.5c-0.4-0.2-0.9-0.3-1.6-0.3c-1,0-1.6,0.4-1.6,1.1v0c0,0.7,0.6,1,1.3,1
				C692.4,127.2,693.2,126.6,693.2,125.7z" />
        <path d="M696.9,126.3v-3.6H696v-1.4h0.9v-1.9h1.6v1.9h1.8v1.4h-1.8v3.4c0,0.6,0.3,0.9,0.8,0.9c0.4,0,0.7-0.1,1-0.2v1.3
				c-0.4,0.2-0.8,0.4-1.4,0.4C697.7,128.3,696.9,127.8,696.9,126.3z" />
        <path d="M701.9,118.8h1.7v1.5h-1.7V118.8z M702,121.3h1.6v6.9H702V121.3z" />
        <path d="M705.2,124.8L705.2,124.8c0-2,1.6-3.6,3.7-3.6s3.7,1.6,3.7,3.6v0c0,2-1.6,3.6-3.7,3.6
				C706.8,128.4,705.2,126.8,705.2,124.8z M711,124.8L711,124.8c0-1.2-0.9-2.2-2.1-2.2c-1.3,0-2.1,1-2.1,2.2v0
				c0,1.2,0.9,2.2,2.1,2.2C710.2,127,711,126,711,124.8z" />
        <path d="M714.1,121.3h1.6v1.1c0.4-0.6,1.1-1.2,2.1-1.2c1.5,0,2.4,1,2.4,2.6v4.4h-1.6v-3.9c0-1.1-0.5-1.7-1.5-1.7
				c-0.9,0-1.5,0.6-1.5,1.7v3.9h-1.6V121.3z" />
        <path d="M726.4,126.3v-3.6h-0.9v-1.4h0.9v-1.9h1.6v1.9h1.8v1.4H728v3.4c0,0.6,0.3,0.9,0.8,0.9c0.4,0,0.7-0.1,1-0.2v1.3
				c-0.4,0.2-0.8,0.4-1.4,0.4C727.3,128.3,726.4,127.8,726.4,126.3z" />
        <path d="M730.9,124.8L730.9,124.8c0-2,1.6-3.6,3.7-3.6s3.7,1.6,3.7,3.6v0c0,2-1.6,3.6-3.7,3.6
				C732.4,128.4,730.9,126.8,730.9,124.8z M736.6,124.8L736.6,124.8c0-1.2-0.9-2.2-2.1-2.2c-1.3,0-2.1,1-2.1,2.2v0
				c0,1.2,0.9,2.2,2.1,2.2C735.8,127,736.6,126,736.6,124.8z" />
        <path d="M743.1,121.3h1.6l1.4,4.7l1.5-4.7h1.4l1.5,4.7l1.4-4.7h1.6l-2.2,6.9h-1.4l-1.5-4.7l-1.5,4.7h-1.4L743.1,121.3z" />
        <path d="M754.9,118.7h1.6v3.7c0.4-0.6,1.1-1.2,2.1-1.2c1.5,0,2.4,1,2.4,2.6v4.4h-1.6v-3.9c0-1.1-0.5-1.7-1.5-1.7
				c-0.9,0-1.5,0.6-1.5,1.7v3.9h-1.6V118.7z" />
        <path d="M762.6,124.8L762.6,124.8c0-2,1.6-3.6,3.7-3.6c2.1,0,3.7,1.6,3.7,3.6v0c0,2-1.6,3.6-3.7,3.6
				C764.1,128.4,762.6,126.8,762.6,124.8z M768.3,124.8L768.3,124.8c0-1.2-0.9-2.2-2.1-2.2c-1.3,0-2.1,1-2.1,2.2v0
				c0,1.2,0.9,2.2,2.1,2.2C767.5,127,768.3,126,768.3,124.8z" />
        <path d="M771.5,121.3h1.6v1c0.4-0.6,1-1.2,2.1-1.2c1,0,1.7,0.5,2.1,1.2c0.5-0.7,1.3-1.2,2.3-1.2c1.5,0,2.4,0.9,2.4,2.6v4.4h-1.6
				v-3.9c0-1.1-0.5-1.7-1.4-1.7c-0.9,0-1.5,0.6-1.5,1.7v3.9h-1.6v-3.9c0-1.1-0.5-1.7-1.4-1.7s-1.5,0.7-1.5,1.7v3.9h-1.6V121.3z" />
      </g>
      <g class="st14">
        <path d="M650.6,136.9h1.6l1.4,4.7l1.5-4.7h1.4l1.5,4.7l1.4-4.7h1.6l-2.2,6.9h-1.4l-1.5-4.7l-1.5,4.7h-1.4L650.6,136.9z" />
        <path d="M661.7,140.4L661.7,140.4c0-2,1.4-3.6,3.4-3.6c2.2,0,3.3,1.7,3.3,3.7c0,0.1,0,0.3,0,0.4h-5c0.2,1.1,1,1.7,2,1.7
				c0.8,0,1.3-0.3,1.9-0.8l0.9,0.8c-0.7,0.8-1.5,1.3-2.8,1.3C663.2,144,661.7,142.5,661.7,140.4z M666.8,139.9
				c-0.1-1-0.7-1.8-1.7-1.8c-1,0-1.6,0.7-1.8,1.8H666.8z" />
        <path d="M673.5,140.4L673.5,140.4c0-2.3,1.5-3.6,3.2-3.6c1.1,0,1.8,0.6,2.3,1.2v-3.7h1.6v9.5H679v-1.1c-0.5,0.7-1.2,1.3-2.3,1.3
				C675.1,143.9,673.5,142.7,673.5,140.4z M679,140.4L679,140.4c0-1.4-0.9-2.2-2-2.2c-1.1,0-2,0.8-2,2.2v0c0,1.3,0.9,2.2,2,2.2
				C678.1,142.6,679,141.7,679,140.4z" />
        <path d="M682.2,140.4L682.2,140.4c0-2,1.6-3.6,3.7-3.6s3.7,1.6,3.7,3.6v0c0,2-1.6,3.6-3.7,3.6C683.7,144,682.2,142.4,682.2,140.4
				z M687.9,140.4L687.9,140.4c0-1.2-0.9-2.2-2.1-2.2c-1.3,0-2.1,1-2.1,2.2v0c0,1.2,0.9,2.2,2.1,2.2
				C687.1,142.6,687.9,141.6,687.9,140.4z" />
        <path d="M695,136.9h1.6v1.1c0.4-0.6,1.1-1.2,2.1-1.2c1.5,0,2.4,1,2.4,2.6v4.4h-1.6v-3.9c0-1.1-0.5-1.7-1.5-1.7
				c-0.9,0-1.5,0.6-1.5,1.7v3.9H695V136.9z" />
        <path d="M702.7,140.4L702.7,140.4c0-2,1.6-3.6,3.7-3.6c2.1,0,3.7,1.6,3.7,3.6v0c0,2-1.6,3.6-3.7,3.6
				C704.2,144,702.7,142.4,702.7,140.4z M708.4,140.4L708.4,140.4c0-1.2-0.9-2.2-2.1-2.2c-1.3,0-2.1,1-2.1,2.2v0
				c0,1.2,0.9,2.2,2.1,2.2C707.6,142.6,708.4,141.6,708.4,140.4z" />
        <path d="M711.9,141.9v-3.6h-0.9v-1.4h0.9V135h1.6v1.9h1.8v1.4h-1.8v3.4c0,0.6,0.3,0.9,0.8,0.9c0.4,0,0.7-0.1,1-0.2v1.3
				c-0.4,0.2-0.8,0.4-1.4,0.4C712.7,143.9,711.9,143.4,711.9,141.9z" />
        <path d="M720.8,134.3h1.6v5.7l2.8-3h1.9l-2.7,2.8l2.8,4.1h-1.8l-2-3l-1,1v2h-1.6V134.3z" />
        <path d="M728.4,136.9h1.6v1.1c0.4-0.6,1.1-1.2,2.1-1.2c1.5,0,2.4,1,2.4,2.6v4.4H733v-3.9c0-1.1-0.5-1.7-1.5-1.7
				c-0.9,0-1.5,0.6-1.5,1.7v3.9h-1.6V136.9z" />
        <path d="M736.1,140.4L736.1,140.4c0-2,1.6-3.6,3.7-3.6s3.7,1.6,3.7,3.6v0c0,2-1.6,3.6-3.7,3.6C737.6,144,736.1,142.4,736.1,140.4
				z M741.8,140.4L741.8,140.4c0-1.2-0.9-2.2-2.1-2.2c-1.3,0-2.1,1-2.1,2.2v0c0,1.2,0.9,2.2,2.1,2.2
				C741,142.6,741.8,141.6,741.8,140.4z" />
        <path d="M744.1,136.9h1.6l1.4,4.7l1.5-4.7h1.4l1.5,4.7l1.4-4.7h1.6l-2.2,6.9h-1.4l-1.5-4.7l-1.5,4.7h-1.4L744.1,136.9z" />
      </g>
      <g class="st14">
        <path d="M650.9,156L650.9,156c0-2.3,1.5-3.6,3.2-3.6c1.1,0,1.8,0.6,2.3,1.2v-3.7h1.6v9.5h-1.6v-1.1c-0.5,0.7-1.2,1.3-2.3,1.3
				C652.4,159.5,650.9,158.3,650.9,156z M656.4,156L656.4,156c0-1.4-0.9-2.2-2-2.2c-1.1,0-2,0.8-2,2.2v0c0,1.3,0.9,2.2,2,2.2
				C655.5,158.2,656.4,157.3,656.4,156z" />
        <path d="M659.6,156L659.6,156c0-2,1.4-3.6,3.4-3.6c2.2,0,3.3,1.7,3.3,3.7c0,0.1,0,0.3,0,0.4h-5c0.2,1.1,1,1.7,2,1.7
				c0.8,0,1.3-0.3,1.9-0.8l0.9,0.8c-0.7,0.8-1.5,1.3-2.8,1.3C661.1,159.6,659.6,158.1,659.6,156z M664.6,155.5
				c-0.1-1-0.7-1.8-1.7-1.8c-1,0-1.6,0.7-1.8,1.8H664.6z" />
        <path d="M668.1,153.9h-0.9v-1.3h0.9v-0.5c0-0.8,0.2-1.3,0.6-1.7c0.4-0.4,0.9-0.5,1.5-0.5c0.6,0,0.9,0.1,1.3,0.2v1.3
				c-0.3-0.1-0.6-0.2-0.9-0.2c-0.6,0-0.9,0.3-0.9,1v0.4h1.8v1.3h-1.8v5.5h-1.6V153.9z" />
        <path d="M672,157.4L672,157.4c0-1.5,1.2-2.2,2.8-2.2c0.8,0,1.3,0.1,1.8,0.3v-0.2c0-1-0.6-1.5-1.7-1.5c-0.8,0-1.3,0.2-2,0.4
				l-0.4-1.2c0.8-0.3,1.5-0.6,2.6-0.6c1,0,1.8,0.3,2.3,0.8c0.5,0.5,0.7,1.2,0.7,2.1v4.1h-1.5v-0.9c-0.5,0.6-1.2,1-2.2,1
				C673.2,159.5,672,158.8,672,157.4z M676.7,156.9v-0.5c-0.4-0.2-0.9-0.3-1.6-0.3c-1,0-1.6,0.4-1.6,1.1v0c0,0.7,0.6,1,1.3,1
				C675.9,158.4,676.7,157.8,676.7,156.9z" />
        <path d="M680,156.9v-4.4h1.6v3.9c0,1.1,0.5,1.7,1.5,1.7c0.9,0,1.5-0.6,1.5-1.7v-3.9h1.6v6.9h-1.6v-1.1c-0.4,0.7-1.1,1.2-2.1,1.2
				C680.9,159.5,680,158.5,680,156.9z" />
        <path d="M688.3,149.9h1.6v9.5h-1.6V149.9z" />
        <path d="M692.2,157.5v-3.6h-0.9v-1.4h0.9v-1.9h1.6v1.9h1.8v1.4h-1.8v3.4c0,0.6,0.3,0.9,0.8,0.9c0.4,0,0.7-0.1,1-0.2v1.3
				c-0.4,0.2-0.8,0.4-1.4,0.4C693,159.5,692.2,159,692.2,157.5z" />
        <path d="M700.6,158.5l0.7-1.1c0.8,0.6,1.5,0.8,2.2,0.8c0.7,0,1.1-0.3,1.1-0.7v0c0-0.5-0.7-0.7-1.5-1c-1-0.3-2.1-0.7-2.1-2v0
				c0-1.3,1.1-2.1,2.4-2.1c0.9,0,1.8,0.3,2.5,0.8l-0.6,1.1c-0.7-0.4-1.4-0.7-1.9-0.7c-0.6,0-1,0.3-1,0.7v0c0,0.5,0.7,0.7,1.5,1
				c1,0.3,2.1,0.8,2.1,2v0c0,1.4-1.1,2.2-2.5,2.2C702.5,159.5,701.4,159.2,700.6,158.5z" />
        <path d="M707.8,157.5v-3.6H707v-1.4h0.9v-1.9h1.6v1.9h1.8v1.4h-1.8v3.4c0,0.6,0.3,0.9,0.8,0.9c0.4,0,0.7-0.1,1-0.2v1.3
				c-0.4,0.2-0.8,0.4-1.4,0.4C708.7,159.5,707.8,159,707.8,157.5z" />
        <path d="M712.4,157.4L712.4,157.4c0-1.5,1.2-2.2,2.8-2.2c0.8,0,1.3,0.1,1.8,0.3v-0.2c0-1-0.6-1.5-1.7-1.5c-0.8,0-1.3,0.2-2,0.4
				L713,153c0.8-0.3,1.5-0.6,2.6-0.6c1,0,1.8,0.3,2.3,0.8c0.5,0.5,0.7,1.2,0.7,2.1v4.1h-1.5v-0.9c-0.5,0.6-1.2,1-2.2,1
				C713.6,159.5,712.4,158.8,712.4,157.4z M717.1,156.9v-0.5c-0.4-0.2-0.9-0.3-1.6-0.3c-1,0-1.6,0.4-1.6,1.1v0c0,0.7,0.6,1,1.3,1
				C716.3,158.4,717.1,157.8,717.1,156.9z" />
        <path d="M720.8,157.5v-3.6h-0.9v-1.4h0.9v-1.9h1.6v1.9h1.8v1.4h-1.8v3.4c0,0.6,0.3,0.9,0.8,0.9c0.4,0,0.7-0.1,1-0.2v1.3
				c-0.4,0.2-0.8,0.4-1.4,0.4C721.6,159.5,720.8,159,720.8,157.5z" />
        <path d="M725.7,156.9v-4.4h1.6v3.9c0,1.1,0.5,1.7,1.5,1.7c0.9,0,1.5-0.6,1.5-1.7v-3.9h1.6v6.9h-1.6v-1.1
				c-0.4,0.7-1.1,1.2-2.1,1.2C726.6,159.5,725.7,158.5,725.7,156.9z" />
        <path d="M733.3,158.5l0.7-1.1c0.8,0.6,1.5,0.8,2.2,0.8c0.7,0,1.1-0.3,1.1-0.7v0c0-0.5-0.7-0.7-1.5-1c-1-0.3-2.1-0.7-2.1-2v0
				c0-1.3,1.1-2.1,2.4-2.1c0.9,0,1.8,0.3,2.5,0.8l-0.6,1.1c-0.7-0.4-1.4-0.7-1.9-0.7c-0.6,0-1,0.3-1,0.7v0c0,0.5,0.7,0.7,1.5,1
				c1,0.3,2.1,0.8,2.1,2v0c0,1.4-1.1,2.2-2.5,2.2C735.2,159.5,734.1,159.2,733.3,158.5z" />
      </g>
    </g>
    <g class="st14">
      <g>
        <path class="st17" d="M494.8,106.9h4.2c1.2,0,2.1,0.3,2.7,0.9c0.5,0.5,0.8,1.2,0.8,2.1l0,0c0,1.5-0.8,2.4-2,2.8l2.2,3.2h-2.3
				l-2-2.9h-1.6v2.9h-2L494.8,106.9L494.8,106.9z M498.8,111.4c1,0,1.5-0.5,1.5-1.3l0,0c0-0.9-0.6-1.3-1.6-1.3h-2v2.6
				C496.7,111.4,498.8,111.4,498.8,111.4z" />
      </g>
      <g>
        <path class="st17" d="M503.5,112.6L503.5,112.6c0-2,1.4-3.7,3.4-3.7c2.3,0,3.4,1.8,3.4,3.8c0,0.2,0,0.3,0,0.5h-4.8
				c0.2,0.9,0.8,1.4,1.7,1.4c0.7,0,1.1-0.2,1.7-0.7l1.1,1c-0.6,0.8-1.6,1.3-2.8,1.3C505.1,116.2,503.5,114.7,503.5,112.6z
				 M508.4,112c-0.1-0.9-0.6-1.5-1.5-1.5c-0.8,0-1.4,0.6-1.5,1.5H508.4z" />
      </g>
      <g>
        <path class="st17" d="M510.8,118.1v-1.5c0.2,0,0.3,0,0.4,0c0.4,0,0.7-0.2,0.7-0.8v-6.7h2v6.9c0,1.5-0.8,2.2-2.2,2.2
				C511.3,118.2,511.1,118.1,510.8,118.1z M511.9,106.5h2.1v1.8h-2.1V106.5z" />
      </g>
      <g>
        <path class="st17" d="M515.4,112.6L515.4,112.6c0-2,1.4-3.7,3.4-3.7c2.3,0,3.4,1.8,3.4,3.8c0,0.2,0,0.3,0,0.5h-4.8
				c0.2,0.9,0.8,1.4,1.7,1.4c0.7,0,1.1-0.2,1.7-0.7l1.1,1c-0.6,0.8-1.6,1.3-2.8,1.3C516.9,116.2,515.4,114.7,515.4,112.6z
				 M520.3,112c-0.1-0.9-0.6-1.5-1.5-1.5c-0.8,0-1.4,0.6-1.5,1.5H520.3z" />
      </g>
      <g>
        <path class="st17" d="M523.4,112.6L523.4,112.6c0-2,1.5-3.7,3.7-3.7c1.3,0,2.1,0.4,2.8,1.2l-1.2,1.3c-0.4-0.5-0.9-0.8-1.6-0.8
				c-1,0-1.7,0.9-1.7,1.9l0,0c0,1.1,0.7,1.9,1.8,1.9c0.7,0,1.1-0.3,1.6-0.7l1.2,1.2c-0.7,0.7-1.5,1.3-2.8,1.3
				C524.9,116.2,523.4,114.6,523.4,112.6z" />
      </g>
      <g>
        <path class="st17" d="M531.5,114.1v-3.3h-0.8v-1.7h0.8v-1.8h2v1.8h1.6v1.7h-1.6v3c0,0.5,0.2,0.7,0.6,0.7c0.4,0,0.7-0.1,1-0.2v1.6
				c-0.4,0.2-0.9,0.4-1.6,0.4C532.3,116.2,531.5,115.7,531.5,114.1z" />
      </g>
      <g>
        <path class="st17" d="M536,112.6L536,112.6c0-2,1.4-3.7,3.4-3.7c2.3,0,3.4,1.8,3.4,3.8c0,0.2,0,0.3,0,0.5H538
				c0.2,0.9,0.8,1.4,1.7,1.4c0.7,0,1.1-0.2,1.7-0.7l1.1,1c-0.6,0.8-1.6,1.3-2.8,1.3C537.5,116.2,536,114.7,536,112.6z M540.9,112
				c-0.1-0.9-0.6-1.5-1.5-1.5c-0.8,0-1.4,0.6-1.5,1.5H540.9z" />
      </g>
      <g>
        <path class="st17" d="M544,112.6L544,112.6c0-2.4,1.5-3.6,3.2-3.6c1.1,0,1.7,0.5,2.2,1v-3.4h2v9.5h-2v-1
				c-0.5,0.7-1.1,1.1-2.2,1.1C545.5,116.2,544,114.9,544,112.6z M549.4,112.6L549.4,112.6c0-1.2-0.8-2-1.7-2s-1.7,0.8-1.7,1.9l0,0
				c0,1.2,0.8,1.9,1.7,1.9S549.4,113.7,549.4,112.6z" />
      </g>
    </g>
    <g class="st14">
      <g>
        <path class="st17" d="M491.8,125.1L491.8,125.1c0-2.6,2-4.7,4.7-4.7c1.7,0,2.7,0.6,3.6,1.4l-1.3,1.5c-0.7-0.6-1.4-1-2.3-1
				c-1.5,0-2.6,1.3-2.6,2.8l0,0c0,1.6,1.1,2.9,2.6,2.9c1,0,1.7-0.4,2.4-1.1l1.3,1.3c-0.9,1-2,1.6-3.7,1.6
				C493.8,129.8,491.8,127.7,491.8,125.1z" />
      </g>
      <g>
        <path class="st17" d="M501.5,127.2v-4.5h2v3.9c0,0.9,0.4,1.4,1.2,1.4c0.8,0,1.2-0.5,1.2-1.4v-3.9h2v7h-2v-1c-0.5,0.6-1,1.1-2,1.1
				C502.4,129.8,501.5,128.8,501.5,127.2z" />
      </g>
      <g>
        <path class="st17" d="M509.1,128.7l0.8-1.3c0.8,0.5,1.5,0.8,2.2,0.8c0.6,0,0.8-0.2,0.8-0.5l0,0c0-0.4-0.7-0.6-1.4-0.8
				c-1-0.3-2.1-0.7-2.1-2.1l0,0c0-1.4,1.1-2.2,2.5-2.2c0.9,0,1.8,0.3,2.6,0.8l-0.8,1.4c-0.7-0.4-1.4-0.6-1.9-0.6
				c-0.5,0-0.7,0.2-0.7,0.5l0,0c0,0.4,0.7,0.6,1.4,0.8c1,0.3,2.1,0.8,2.1,2.1l0,0c0,1.5-1.2,2.2-2.7,2.2
				C511.1,129.8,510,129.4,509.1,128.7z" />
      </g>
      <g>
        <path class="st17" d="M516.4,127.7v-3.3h-0.8v-1.7h0.8v-1.8h2v1.8h1.6v1.7h-1.6v3c0,0.5,0.2,0.7,0.6,0.7c0.4,0,0.7-0.1,1-0.2v1.6
				c-0.4,0.2-0.9,0.4-1.6,0.4C517.2,129.8,516.4,129.3,516.4,127.7z" />
      </g>
      <g>
        <path class="st17" d="M520.9,126.2L520.9,126.2c0-2,1.6-3.7,3.8-3.7s3.8,1.6,3.8,3.6l0,0c0,2-1.6,3.6-3.8,3.6
				C522.5,129.8,520.9,128.2,520.9,126.2z M526.5,126.2L526.5,126.2c0-1.1-0.7-2-1.8-2s-1.8,0.9-1.8,1.9l0,0c0,1,0.7,1.9,1.8,1.9
				C525.8,128.1,526.5,127.2,526.5,126.2z" />
      </g>
      <g>
        <path class="st17" d="M529.9,122.7h2v1c0.5-0.6,1.1-1.1,2.1-1.1c0.9,0,1.6,0.4,2,1.1c0.6-0.7,1.3-1.1,2.3-1.1
				c1.5,0,2.4,0.9,2.4,2.6v4.5h-2v-3.9c0-0.9-0.4-1.4-1.2-1.4s-1.2,0.5-1.2,1.4v3.9h-2v-3.9c0-0.9-0.4-1.4-1.2-1.4s-1.2,0.5-1.2,1.4
				v3.9h-2L529.9,122.7L529.9,122.7z" />
      </g>
      <g>
        <path class="st17" d="M541.9,126.2L541.9,126.2c0-2,1.4-3.7,3.4-3.7c2.3,0,3.4,1.8,3.4,3.8c0,0.2,0,0.3,0,0.5h-4.8
				c0.2,0.9,0.8,1.4,1.7,1.4c0.7,0,1.1-0.2,1.7-0.7l1.1,1c-0.6,0.8-1.6,1.3-2.8,1.3C543.5,129.8,541.9,128.3,541.9,126.2z
				 M546.8,125.6c-0.1-0.9-0.6-1.5-1.5-1.5c-0.8,0-1.4,0.6-1.5,1.5H546.8z" />
      </g>
      <g>
        <path class="st17" d="M550.2,122.7h2v1.4c0.4-1,1.1-1.6,2.2-1.5v2.1h-0.1c-1.3,0-2.1,0.8-2.1,2.5v2.6h-2L550.2,122.7L550.2,122.7
				z" />
      </g>
    </g>
    <g class="st14">
      <g>
        <path class="st5" d="M281.8,17.6h1.8l4.3,5.6v-5.6h2v9.1h-1.7l-4.4-5.8v5.8h-2L281.8,17.6L281.8,17.6z" />
      </g>
      <g>
        <path class="st5" d="M291.6,23.2L291.6,23.2c0-2,1.4-3.7,3.4-3.7c2.3,0,3.4,1.8,3.4,3.8c0,0.2,0,0.3,0,0.5h-4.8
				c0.2,0.9,0.8,1.4,1.7,1.4c0.7,0,1.1-0.2,1.7-0.7l1.1,1c-0.6,0.8-1.6,1.3-2.8,1.3C293.1,26.8,291.6,25.3,291.6,23.2z M296.5,22.6
				c-0.1-0.9-0.6-1.5-1.5-1.5c-0.8,0-1.4,0.6-1.5,1.5H296.5z" />
      </g>
      <g>
        <path class="st5" d="M299,19.7h2l1.1,4.2l1.3-4.3h1.7l1.3,4.3l1.1-4.2h2l-2.2,7h-1.8l-1.3-4.3l-1.4,4.3H301L299,19.7z" />
      </g>
    </g>
    <g class="st14">
      <g>
        <path class="st5" d="M281.4,35.7L281.4,35.7c0-2.6,2-4.7,4.7-4.7c1.7,0,2.7,0.6,3.6,1.4l-1.3,1.5c-0.7-0.6-1.4-1-2.3-1
				c-1.5,0-2.6,1.3-2.6,2.8l0,0c0,1.6,1.1,2.9,2.6,2.9c1,0,1.7-0.4,2.4-1.1l1.3,1.3c-0.9,1-2,1.6-3.7,1.6
				C283.4,40.4,281.4,38.3,281.4,35.7z" />
      </g>
      <g>
        <path class="st5" d="M291.2,37.8v-4.5h2v3.9c0,0.9,0.4,1.4,1.2,1.4s1.2-0.5,1.2-1.4v-3.9h2v7h-2v-1c-0.5,0.6-1,1.1-2,1.1
				C292,40.4,291.2,39.4,291.2,37.8z" />
      </g>
      <g>
        <path class="st5" d="M298.8,39.3l0.8-1.3c0.8,0.5,1.5,0.8,2.2,0.8c0.6,0,0.8-0.2,0.8-0.5l0,0c0-0.4-0.7-0.6-1.4-0.8
				c-1-0.3-2.1-0.7-2.1-2.1l0,0c0-1.4,1.1-2.2,2.5-2.2c0.9,0,1.8,0.3,2.6,0.8l-0.8,1.4c-0.7-0.4-1.4-0.6-1.9-0.6s-0.7,0.2-0.7,0.5
				l0,0c0,0.4,0.7,0.6,1.4,0.8c1,0.3,2.1,0.8,2.1,2.1l0,0c0,1.5-1.2,2.2-2.7,2.2C300.8,40.4,299.7,40.1,298.8,39.3z" />
      </g>
      <g>
        <path class="st5" d="M306,38.3V35h-0.8v-1.7h0.8v-1.8h2v1.8h1.6V35H308v3c0,0.5,0.2,0.7,0.6,0.7s0.7-0.1,1-0.2V40
				c-0.4,0.2-0.9,0.4-1.6,0.4C306.9,40.4,306,39.9,306,38.3z" />
      </g>
      <g>
        <path class="st5" d="M310.6,36.8L310.6,36.8c0-2,1.6-3.7,3.8-3.7c2.2,0,3.8,1.6,3.8,3.6l0,0c0,2-1.6,3.6-3.8,3.6
				C312.2,40.4,310.6,38.8,310.6,36.8z M316.2,36.8L316.2,36.8c0-1.1-0.7-2-1.8-2c-1.1,0-1.8,0.9-1.8,1.9l0,0c0,1,0.7,1.9,1.8,1.9
				C315.5,38.7,316.2,37.8,316.2,36.8z" />
      </g>
      <g>
        <path class="st5" d="M319.5,33.3h2v1c0.5-0.6,1.1-1.1,2.1-1.1c0.9,0,1.6,0.4,2,1.1c0.6-0.7,1.3-1.1,2.3-1.1
				c1.5,0,2.4,0.9,2.4,2.6v4.5h-2v-3.9c0-0.9-0.4-1.4-1.2-1.4s-1.2,0.5-1.2,1.4v3.9h-2v-3.9c0-0.9-0.4-1.4-1.2-1.4s-1.2,0.5-1.2,1.4
				v3.9h-2L319.5,33.3L319.5,33.3z" />
      </g>
      <g>
        <path class="st5" d="M331.6,36.8L331.6,36.8c0-2,1.4-3.7,3.4-3.7c2.3,0,3.4,1.8,3.4,3.8c0,0.2,0,0.3,0,0.5h-4.8
				c0.2,0.9,0.8,1.4,1.7,1.4c0.7,0,1.1-0.2,1.7-0.7l1.1,1c-0.7,0.8-1.6,1.3-2.8,1.3C333.1,40.4,331.6,38.9,331.6,36.8z M336.5,36.2
				c-0.1-0.9-0.6-1.5-1.5-1.5c-0.8,0-1.4,0.6-1.5,1.5H336.5z" />
      </g>
      <g>
        <path class="st5" d="M339.9,33.3h2v1.4c0.4-1,1.1-1.6,2.2-1.5v2.1H344c-1.3,0-2.1,0.8-2.1,2.5v2.6h-2V33.3z" />
      </g>
    </g>
  </g>
</svg>